G04 #@! TF.FileFunction,Copper,L1,Top,Signal*
%FSLAX46Y46*%
G04 Gerber Fmt 4.6, Leading zero omitted, Abs format (unit mm)*
G04 Created by KiCad (PCBNEW 4.0.7-e2-6376~58~ubuntu16.04.1) date Wed Apr 11 12:48:13 2018*
%MOMM*%
%LPD*%
G01*
G04 APERTURE LIST*
%ADD10C,0.100000*%
%ADD11R,1.500000X1.900000*%
%ADD12C,1.450000*%
%ADD13R,0.400000X1.350000*%
%ADD14O,1.200000X1.900000*%
%ADD15R,1.200000X1.900000*%
%ADD16R,1.600000X1.600000*%
%ADD17C,1.600000*%
%ADD18R,1.800000X1.800000*%
%ADD19C,1.800000*%
%ADD20O,1.600000X1.600000*%
%ADD21C,1.400000*%
%ADD22O,1.400000X1.400000*%
%ADD23C,0.600000*%
%ADD24C,0.250000*%
G04 APERTURE END LIST*
D10*
D11*
X183150000Y-84105000D03*
D12*
X186650000Y-86805000D03*
D13*
X184800000Y-86805000D03*
X185450000Y-86805000D03*
X182850000Y-86805000D03*
X183500000Y-86805000D03*
X184150000Y-86805000D03*
D12*
X181650000Y-86805000D03*
D11*
X185150000Y-84105000D03*
D14*
X187650000Y-84105000D03*
X180650000Y-84105000D03*
D15*
X181250000Y-84105000D03*
X187050000Y-84105000D03*
D16*
X179705000Y-96520000D03*
D17*
X181705000Y-96520000D03*
D18*
X146050000Y-93980000D03*
D19*
X148590000Y-93980000D03*
D18*
X153670000Y-97790000D03*
D19*
X156210000Y-97790000D03*
D18*
X158750000Y-104140000D03*
D19*
X161290000Y-104140000D03*
D18*
X158750000Y-111760000D03*
D19*
X161290000Y-111760000D03*
D18*
X153670000Y-118110000D03*
D19*
X156210000Y-118110000D03*
D18*
X146050000Y-120650000D03*
D19*
X148590000Y-120650000D03*
D18*
X138430000Y-118110000D03*
D19*
X140970000Y-118110000D03*
D18*
X133350000Y-111760000D03*
D19*
X135890000Y-111760000D03*
D18*
X133350000Y-104140000D03*
D19*
X135890000Y-104140000D03*
D18*
X138430000Y-97790000D03*
D19*
X140970000Y-97790000D03*
D17*
X179705000Y-104140000D03*
D20*
X187325000Y-104140000D03*
D17*
X179705000Y-109220000D03*
D20*
X187325000Y-109220000D03*
D21*
X186690000Y-93980000D03*
D22*
X186690000Y-99060000D03*
D16*
X167005000Y-104140000D03*
D20*
X174625000Y-121920000D03*
X167005000Y-106680000D03*
X174625000Y-119380000D03*
X167005000Y-109220000D03*
X174625000Y-116840000D03*
X167005000Y-111760000D03*
X174625000Y-114300000D03*
X167005000Y-114300000D03*
X174625000Y-111760000D03*
X167005000Y-116840000D03*
X174625000Y-109220000D03*
X167005000Y-119380000D03*
X174625000Y-106680000D03*
X167005000Y-121920000D03*
X174625000Y-104140000D03*
D16*
X179705000Y-114300000D03*
D20*
X187325000Y-121920000D03*
X179705000Y-116840000D03*
X187325000Y-119380000D03*
X179705000Y-119380000D03*
X187325000Y-116840000D03*
X179705000Y-121920000D03*
X187325000Y-114300000D03*
D23*
X147320000Y-107950000D03*
X164465000Y-99060000D03*
X169545000Y-106680000D03*
X163830000Y-114300000D03*
X164465000Y-109855000D03*
X161925000Y-118110000D03*
X163195000Y-100965000D03*
X165100000Y-97155000D03*
X172720000Y-104775000D03*
X172720000Y-115570000D03*
X177165000Y-111760000D03*
X177165000Y-104140000D03*
D24*
X187325000Y-104140000D02*
X186055000Y-105410000D01*
X186055000Y-105410000D02*
X186055000Y-118110000D01*
X186055000Y-118110000D02*
X187325000Y-119380000D01*
X147320000Y-107950000D02*
X147320000Y-114935000D01*
X147320000Y-119380000D02*
X147320000Y-114935000D01*
X147320000Y-119380000D02*
X146050000Y-120650000D01*
X153035000Y-102235000D02*
X149542500Y-105727500D01*
X154940000Y-99060000D02*
X154940000Y-100330000D01*
X154940000Y-100330000D02*
X153035000Y-102235000D01*
X153670000Y-97790000D02*
X154940000Y-99060000D01*
X149542500Y-105727500D02*
X149225000Y-105410000D01*
X147320000Y-104775000D02*
X147320000Y-99060000D01*
X147320000Y-95250000D02*
X147320000Y-99060000D01*
X147320000Y-95250000D02*
X146050000Y-93980000D01*
X140970000Y-101600000D02*
X145097500Y-105727500D01*
X139700000Y-99060000D02*
X139700000Y-100330000D01*
X139700000Y-100330000D02*
X140970000Y-101600000D01*
X138430000Y-97790000D02*
X139700000Y-99060000D01*
X145097500Y-105727500D02*
X145415000Y-105410000D01*
X144145000Y-106680000D02*
X144145000Y-109220000D01*
X142240000Y-113030000D02*
X145097500Y-110172500D01*
X139700000Y-116840000D02*
X139700000Y-115570000D01*
X139700000Y-115570000D02*
X142240000Y-113030000D01*
X138430000Y-118110000D02*
X139700000Y-116840000D01*
X145097500Y-110172500D02*
X145415000Y-110490000D01*
X152400000Y-113030000D02*
X149542500Y-110172500D01*
X154940000Y-116840000D02*
X154940000Y-115570000D01*
X154940000Y-115570000D02*
X152400000Y-113030000D01*
X153670000Y-118110000D02*
X154940000Y-116840000D01*
X149542500Y-110172500D02*
X149860000Y-109855000D01*
X150495000Y-106680000D02*
X153670000Y-106680000D01*
X160020000Y-105410000D02*
X160020000Y-106680000D01*
X160020000Y-106680000D02*
X153670000Y-106680000D01*
X160020000Y-105410000D02*
X158750000Y-104140000D01*
X150495000Y-109220000D02*
X153670000Y-109220000D01*
X160020000Y-110490000D02*
X160020000Y-109220000D01*
X160020000Y-109220000D02*
X153670000Y-109220000D01*
X160020000Y-110490000D02*
X158750000Y-111760000D01*
X144145000Y-106680000D02*
X145415000Y-105410000D01*
X145415000Y-105410000D02*
X146050000Y-104775000D01*
X146050000Y-111125000D02*
X145415000Y-110490000D01*
X145415000Y-110490000D02*
X144145000Y-109220000D01*
X148590000Y-111125000D02*
X146050000Y-111125000D01*
X150495000Y-109220000D02*
X149860000Y-109855000D01*
X149860000Y-109855000D02*
X148590000Y-111125000D01*
X150495000Y-106680000D02*
X150495000Y-109220000D01*
X148590000Y-104775000D02*
X149225000Y-105410000D01*
X149225000Y-105410000D02*
X150495000Y-106680000D01*
X146050000Y-104775000D02*
X147320000Y-104775000D01*
X147320000Y-104775000D02*
X148590000Y-104775000D01*
X140970000Y-106680000D02*
X144145000Y-106680000D01*
X133350000Y-104140000D02*
X134620000Y-105410000D01*
X134620000Y-106680000D02*
X140970000Y-106680000D01*
X134620000Y-105410000D02*
X134620000Y-106680000D01*
X134620000Y-110490000D02*
X134620000Y-109220000D01*
X134620000Y-109220000D02*
X140970000Y-109220000D01*
X134620000Y-110490000D02*
X133350000Y-111760000D01*
X144145000Y-109220000D02*
X140970000Y-109220000D01*
X164465000Y-99060000D02*
X169545000Y-104140000D01*
X169545000Y-104140000D02*
X169545000Y-106680000D01*
X156210000Y-97790000D02*
X158115000Y-97790000D01*
X158115000Y-97790000D02*
X165735000Y-105410000D01*
X165735000Y-105410000D02*
X168275000Y-105410000D01*
X168275000Y-105410000D02*
X168275000Y-115570000D01*
X168275000Y-115570000D02*
X165735000Y-115570000D01*
X165735000Y-115570000D02*
X165735000Y-118110000D01*
X165735000Y-118110000D02*
X167005000Y-119380000D01*
X161290000Y-104140000D02*
X165735000Y-108585000D01*
X165735000Y-108585000D02*
X165735000Y-113030000D01*
X165735000Y-113030000D02*
X167005000Y-114300000D01*
X161290000Y-111760000D02*
X163830000Y-114300000D01*
X164465000Y-109855000D02*
X164465000Y-113665000D01*
X164465000Y-113665000D02*
X165100000Y-113665000D01*
X165100000Y-113665000D02*
X165100000Y-114935000D01*
X165100000Y-114935000D02*
X161925000Y-118110000D01*
X163195000Y-100965000D02*
X163830000Y-100965000D01*
X163830000Y-100965000D02*
X167005000Y-104140000D01*
X174625000Y-121920000D02*
X173355000Y-121920000D01*
X169545000Y-101600000D02*
X165100000Y-97155000D01*
X172720000Y-104775000D02*
X169545000Y-101600000D01*
X172720000Y-121285000D02*
X172720000Y-115570000D01*
X173355000Y-121920000D02*
X172720000Y-121285000D01*
X187325000Y-109220000D02*
X188595000Y-110490000D01*
X188595000Y-110490000D02*
X188595000Y-115570000D01*
X188595000Y-115570000D02*
X187325000Y-116840000D01*
X177165000Y-111760000D02*
X178435000Y-113030000D01*
X178435000Y-113030000D02*
X178435000Y-118110000D01*
X178435000Y-118110000D02*
X179705000Y-119380000D01*
X183515000Y-90170000D02*
X183515000Y-86820000D01*
X183515000Y-86820000D02*
X183500000Y-86805000D01*
X174625000Y-111760000D02*
X168275000Y-118110000D01*
X168275000Y-118110000D02*
X168275000Y-120650000D01*
X168275000Y-120650000D02*
X167005000Y-121920000D01*
X181705000Y-96520000D02*
X181610000Y-96520000D01*
X181610000Y-96520000D02*
X180975000Y-97155000D01*
X180975000Y-97155000D02*
X180975000Y-97790000D01*
X180975000Y-97790000D02*
X177165000Y-101600000D01*
X177165000Y-101600000D02*
X177165000Y-104140000D01*
X183500000Y-90290000D02*
X183515000Y-90170000D01*
X183515000Y-90170000D02*
X183515000Y-91440000D01*
X183515000Y-91440000D02*
X181610000Y-93345000D01*
X181610000Y-93345000D02*
X181610000Y-96520000D01*
X181610000Y-96520000D02*
X181705000Y-96520000D01*
X174625000Y-106680000D02*
X175895000Y-107950000D01*
X175895000Y-107950000D02*
X175895000Y-110490000D01*
X175895000Y-110490000D02*
X174625000Y-111760000D01*
X185420000Y-90170000D02*
X185420000Y-86835000D01*
X185420000Y-86835000D02*
X185450000Y-86805000D01*
X179705000Y-109220000D02*
X185420000Y-103505000D01*
X185420000Y-103505000D02*
X185420000Y-90170000D01*
X185420000Y-90170000D02*
X185450000Y-90290000D01*
X179705000Y-109220000D02*
X174625000Y-104140000D01*
X179705000Y-109220000D02*
X180975000Y-110490000D01*
X180975000Y-110490000D02*
X180975000Y-120650000D01*
X180975000Y-120650000D02*
X179705000Y-121920000D01*
M02*
