G04 #@! TF.FileFunction,Legend,Bot*
%FSLAX46Y46*%
G04 Gerber Fmt 4.6, Leading zero omitted, Abs format (unit mm)*
G04 Created by KiCad (PCBNEW 4.0.7-e2-6376~58~ubuntu16.04.1) date Wed Jun 13 19:58:53 2018*
%MOMM*%
%LPD*%
G01*
G04 APERTURE LIST*
%ADD10C,0.100000*%
%ADD11C,0.300000*%
G04 APERTURE END LIST*
D10*
D11*
X149510499Y-106142071D02*
X150010499Y-105427786D01*
X150367642Y-106142071D02*
X150367642Y-104642071D01*
X149796214Y-104642071D01*
X149653356Y-104713500D01*
X149581928Y-104784929D01*
X149510499Y-104927786D01*
X149510499Y-105142071D01*
X149581928Y-105284929D01*
X149653356Y-105356357D01*
X149796214Y-105427786D01*
X150367642Y-105427786D01*
X148939071Y-106070643D02*
X148724785Y-106142071D01*
X148367642Y-106142071D01*
X148224785Y-106070643D01*
X148153356Y-105999214D01*
X148081928Y-105856357D01*
X148081928Y-105713500D01*
X148153356Y-105570643D01*
X148224785Y-105499214D01*
X148367642Y-105427786D01*
X148653356Y-105356357D01*
X148796214Y-105284929D01*
X148867642Y-105213500D01*
X148939071Y-105070643D01*
X148939071Y-104927786D01*
X148867642Y-104784929D01*
X148796214Y-104713500D01*
X148653356Y-104642071D01*
X148296214Y-104642071D01*
X148081928Y-104713500D01*
X147653357Y-104642071D02*
X147153357Y-106142071D01*
X146653357Y-104642071D01*
X146153357Y-106142071D02*
X146153357Y-104642071D01*
X145581929Y-104642071D01*
X145439071Y-104713500D01*
X145367643Y-104784929D01*
X145296214Y-104927786D01*
X145296214Y-105142071D01*
X145367643Y-105284929D01*
X145439071Y-105356357D01*
X145581929Y-105427786D01*
X146153357Y-105427786D01*
X144653357Y-105999214D02*
X144581929Y-106070643D01*
X144653357Y-106142071D01*
X144724786Y-106070643D01*
X144653357Y-105999214D01*
X144653357Y-106142071D01*
X144653357Y-105213500D02*
X144581929Y-105284929D01*
X144653357Y-105356357D01*
X144724786Y-105284929D01*
X144653357Y-105213500D01*
X144653357Y-105356357D01*
X159653356Y-108692071D02*
X159796214Y-108620643D01*
X159867642Y-108477786D01*
X159867642Y-107192071D01*
X158867642Y-108692071D02*
X159010500Y-108620643D01*
X159081928Y-108549214D01*
X159153357Y-108406357D01*
X159153357Y-107977786D01*
X159081928Y-107834929D01*
X159010500Y-107763500D01*
X158867642Y-107692071D01*
X158653357Y-107692071D01*
X158510500Y-107763500D01*
X158439071Y-107834929D01*
X158367642Y-107977786D01*
X158367642Y-108406357D01*
X158439071Y-108549214D01*
X158510500Y-108620643D01*
X158653357Y-108692071D01*
X158867642Y-108692071D01*
X157724785Y-108692071D02*
X157724785Y-107692071D01*
X157724785Y-107977786D02*
X157653357Y-107834929D01*
X157581928Y-107763500D01*
X157439071Y-107692071D01*
X157296214Y-107692071D01*
X156153357Y-108692071D02*
X156153357Y-107192071D01*
X156153357Y-108620643D02*
X156296214Y-108692071D01*
X156581928Y-108692071D01*
X156724786Y-108620643D01*
X156796214Y-108549214D01*
X156867643Y-108406357D01*
X156867643Y-107977786D01*
X156796214Y-107834929D01*
X156724786Y-107763500D01*
X156581928Y-107692071D01*
X156296214Y-107692071D01*
X156153357Y-107763500D01*
X155439071Y-108692071D02*
X155439071Y-107192071D01*
X155296214Y-108120643D02*
X154867643Y-108692071D01*
X154867643Y-107692071D02*
X155439071Y-108263500D01*
X154224785Y-108692071D02*
X154224785Y-107692071D01*
X154224785Y-107192071D02*
X154296214Y-107263500D01*
X154224785Y-107334929D01*
X154153357Y-107263500D01*
X154224785Y-107192071D01*
X154224785Y-107334929D01*
X153510499Y-108692071D02*
X153510499Y-107692071D01*
X153510499Y-107834929D02*
X153439071Y-107763500D01*
X153296213Y-107692071D01*
X153081928Y-107692071D01*
X152939071Y-107763500D01*
X152867642Y-107906357D01*
X152867642Y-108692071D01*
X152867642Y-107906357D02*
X152796213Y-107763500D01*
X152653356Y-107692071D01*
X152439071Y-107692071D01*
X152296213Y-107763500D01*
X152224785Y-107906357D01*
X152224785Y-108692071D01*
X151510499Y-108692071D02*
X151510499Y-107192071D01*
X151510499Y-107763500D02*
X151367642Y-107692071D01*
X151081928Y-107692071D01*
X150939071Y-107763500D01*
X150867642Y-107834929D01*
X150796213Y-107977786D01*
X150796213Y-108406357D01*
X150867642Y-108549214D01*
X150939071Y-108620643D01*
X151081928Y-108692071D01*
X151367642Y-108692071D01*
X151510499Y-108620643D01*
X149581928Y-108620643D02*
X149724785Y-108692071D01*
X150010499Y-108692071D01*
X150153356Y-108620643D01*
X150224785Y-108477786D01*
X150224785Y-107906357D01*
X150153356Y-107763500D01*
X150010499Y-107692071D01*
X149724785Y-107692071D01*
X149581928Y-107763500D01*
X149510499Y-107906357D01*
X149510499Y-108049214D01*
X150224785Y-108192071D01*
X148867642Y-108692071D02*
X148867642Y-107692071D01*
X148867642Y-107977786D02*
X148796214Y-107834929D01*
X148724785Y-107763500D01*
X148581928Y-107692071D01*
X148439071Y-107692071D01*
X147010500Y-107977786D02*
X147081928Y-107906357D01*
X147224785Y-107834929D01*
X147367643Y-107834929D01*
X147510500Y-107906357D01*
X147581928Y-107977786D01*
X147653357Y-108120643D01*
X147653357Y-108263500D01*
X147581928Y-108406357D01*
X147510500Y-108477786D01*
X147367643Y-108549214D01*
X147224785Y-108549214D01*
X147081928Y-108477786D01*
X147010500Y-108406357D01*
X147010500Y-107834929D02*
X147010500Y-108406357D01*
X146939071Y-108477786D01*
X146867643Y-108477786D01*
X146724785Y-108406357D01*
X146653357Y-108263500D01*
X146653357Y-107906357D01*
X146796214Y-107692071D01*
X147010500Y-107549214D01*
X147296214Y-107477786D01*
X147581928Y-107549214D01*
X147796214Y-107692071D01*
X147939071Y-107906357D01*
X148010500Y-108192071D01*
X147939071Y-108477786D01*
X147796214Y-108692071D01*
X147581928Y-108834929D01*
X147296214Y-108906357D01*
X147010500Y-108834929D01*
X146796214Y-108692071D01*
X145367643Y-107692071D02*
X145367643Y-108906357D01*
X145439072Y-109049214D01*
X145510500Y-109120643D01*
X145653357Y-109192071D01*
X145867643Y-109192071D01*
X146010500Y-109120643D01*
X145367643Y-108620643D02*
X145510500Y-108692071D01*
X145796214Y-108692071D01*
X145939072Y-108620643D01*
X146010500Y-108549214D01*
X146081929Y-108406357D01*
X146081929Y-107977786D01*
X146010500Y-107834929D01*
X145939072Y-107763500D01*
X145796214Y-107692071D01*
X145510500Y-107692071D01*
X145367643Y-107763500D01*
X144653357Y-108692071D02*
X144653357Y-107692071D01*
X144653357Y-107834929D02*
X144581929Y-107763500D01*
X144439071Y-107692071D01*
X144224786Y-107692071D01*
X144081929Y-107763500D01*
X144010500Y-107906357D01*
X144010500Y-108692071D01*
X144010500Y-107906357D02*
X143939071Y-107763500D01*
X143796214Y-107692071D01*
X143581929Y-107692071D01*
X143439071Y-107763500D01*
X143367643Y-107906357D01*
X143367643Y-108692071D01*
X142010500Y-108692071D02*
X142010500Y-107906357D01*
X142081929Y-107763500D01*
X142224786Y-107692071D01*
X142510500Y-107692071D01*
X142653357Y-107763500D01*
X142010500Y-108620643D02*
X142153357Y-108692071D01*
X142510500Y-108692071D01*
X142653357Y-108620643D01*
X142724786Y-108477786D01*
X142724786Y-108334929D01*
X142653357Y-108192071D01*
X142510500Y-108120643D01*
X142153357Y-108120643D01*
X142010500Y-108049214D01*
X141296214Y-108692071D02*
X141296214Y-107692071D01*
X141296214Y-107192071D02*
X141367643Y-107263500D01*
X141296214Y-107334929D01*
X141224786Y-107263500D01*
X141296214Y-107192071D01*
X141296214Y-107334929D01*
X140367642Y-108692071D02*
X140510500Y-108620643D01*
X140581928Y-108477786D01*
X140581928Y-107192071D01*
X139796214Y-108549214D02*
X139724786Y-108620643D01*
X139796214Y-108692071D01*
X139867643Y-108620643D01*
X139796214Y-108549214D01*
X139796214Y-108692071D01*
X138439071Y-108620643D02*
X138581928Y-108692071D01*
X138867642Y-108692071D01*
X139010500Y-108620643D01*
X139081928Y-108549214D01*
X139153357Y-108406357D01*
X139153357Y-107977786D01*
X139081928Y-107834929D01*
X139010500Y-107763500D01*
X138867642Y-107692071D01*
X138581928Y-107692071D01*
X138439071Y-107763500D01*
X137581928Y-108692071D02*
X137724786Y-108620643D01*
X137796214Y-108549214D01*
X137867643Y-108406357D01*
X137867643Y-107977786D01*
X137796214Y-107834929D01*
X137724786Y-107763500D01*
X137581928Y-107692071D01*
X137367643Y-107692071D01*
X137224786Y-107763500D01*
X137153357Y-107834929D01*
X137081928Y-107977786D01*
X137081928Y-108406357D01*
X137153357Y-108549214D01*
X137224786Y-108620643D01*
X137367643Y-108692071D01*
X137581928Y-108692071D01*
X136439071Y-108692071D02*
X136439071Y-107692071D01*
X136439071Y-107834929D02*
X136367643Y-107763500D01*
X136224785Y-107692071D01*
X136010500Y-107692071D01*
X135867643Y-107763500D01*
X135796214Y-107906357D01*
X135796214Y-108692071D01*
X135796214Y-107906357D02*
X135724785Y-107763500D01*
X135581928Y-107692071D01*
X135367643Y-107692071D01*
X135224785Y-107763500D01*
X135153357Y-107906357D01*
X135153357Y-108692071D01*
X154831927Y-111242071D02*
X154831927Y-109742071D01*
X154831927Y-110313500D02*
X154689070Y-110242071D01*
X154403356Y-110242071D01*
X154260499Y-110313500D01*
X154189070Y-110384929D01*
X154117641Y-110527786D01*
X154117641Y-110956357D01*
X154189070Y-111099214D01*
X154260499Y-111170643D01*
X154403356Y-111242071D01*
X154689070Y-111242071D01*
X154831927Y-111170643D01*
X153617641Y-110242071D02*
X153260498Y-111242071D01*
X152903356Y-110242071D02*
X153260498Y-111242071D01*
X153403356Y-111599214D01*
X153474784Y-111670643D01*
X153617641Y-111742071D01*
X151331927Y-109742071D02*
X150403356Y-109742071D01*
X150903356Y-110313500D01*
X150689070Y-110313500D01*
X150546213Y-110384929D01*
X150474784Y-110456357D01*
X150403356Y-110599214D01*
X150403356Y-110956357D01*
X150474784Y-111099214D01*
X150546213Y-111170643D01*
X150689070Y-111242071D01*
X151117642Y-111242071D01*
X151260499Y-111170643D01*
X151331927Y-111099214D01*
X148974785Y-111242071D02*
X149831928Y-111242071D01*
X149403356Y-111242071D02*
X149403356Y-109742071D01*
X149546213Y-109956357D01*
X149689071Y-110099214D01*
X149831928Y-110170643D01*
X147260500Y-109670643D02*
X148546214Y-111599214D01*
X146474785Y-109742071D02*
X146331928Y-109742071D01*
X146189071Y-109813500D01*
X146117642Y-109884929D01*
X146046213Y-110027786D01*
X145974785Y-110313500D01*
X145974785Y-110670643D01*
X146046213Y-110956357D01*
X146117642Y-111099214D01*
X146189071Y-111170643D01*
X146331928Y-111242071D01*
X146474785Y-111242071D01*
X146617642Y-111170643D01*
X146689071Y-111099214D01*
X146760499Y-110956357D01*
X146831928Y-110670643D01*
X146831928Y-110313500D01*
X146760499Y-110027786D01*
X146689071Y-109884929D01*
X146617642Y-109813500D01*
X146474785Y-109742071D01*
X145117642Y-110384929D02*
X145260500Y-110313500D01*
X145331928Y-110242071D01*
X145403357Y-110099214D01*
X145403357Y-110027786D01*
X145331928Y-109884929D01*
X145260500Y-109813500D01*
X145117642Y-109742071D01*
X144831928Y-109742071D01*
X144689071Y-109813500D01*
X144617642Y-109884929D01*
X144546214Y-110027786D01*
X144546214Y-110099214D01*
X144617642Y-110242071D01*
X144689071Y-110313500D01*
X144831928Y-110384929D01*
X145117642Y-110384929D01*
X145260500Y-110456357D01*
X145331928Y-110527786D01*
X145403357Y-110670643D01*
X145403357Y-110956357D01*
X145331928Y-111099214D01*
X145260500Y-111170643D01*
X145117642Y-111242071D01*
X144831928Y-111242071D01*
X144689071Y-111170643D01*
X144617642Y-111099214D01*
X144546214Y-110956357D01*
X144546214Y-110670643D01*
X144617642Y-110527786D01*
X144689071Y-110456357D01*
X144831928Y-110384929D01*
X142831929Y-109670643D02*
X144117643Y-111599214D01*
X141546214Y-111242071D02*
X142403357Y-111242071D01*
X141974785Y-111242071D02*
X141974785Y-109742071D01*
X142117642Y-109956357D01*
X142260500Y-110099214D01*
X142403357Y-110170643D01*
X140689071Y-110384929D02*
X140831929Y-110313500D01*
X140903357Y-110242071D01*
X140974786Y-110099214D01*
X140974786Y-110027786D01*
X140903357Y-109884929D01*
X140831929Y-109813500D01*
X140689071Y-109742071D01*
X140403357Y-109742071D01*
X140260500Y-109813500D01*
X140189071Y-109884929D01*
X140117643Y-110027786D01*
X140117643Y-110099214D01*
X140189071Y-110242071D01*
X140260500Y-110313500D01*
X140403357Y-110384929D01*
X140689071Y-110384929D01*
X140831929Y-110456357D01*
X140903357Y-110527786D01*
X140974786Y-110670643D01*
X140974786Y-110956357D01*
X140903357Y-111099214D01*
X140831929Y-111170643D01*
X140689071Y-111242071D01*
X140403357Y-111242071D01*
X140260500Y-111170643D01*
X140189071Y-111099214D01*
X140117643Y-110956357D01*
X140117643Y-110670643D01*
X140189071Y-110527786D01*
X140260500Y-110456357D01*
X140403357Y-110384929D01*
X177764333Y-85877667D02*
X177764333Y-84127667D01*
X177097667Y-84127667D01*
X176931000Y-84211000D01*
X176847667Y-84294333D01*
X176764333Y-84461000D01*
X176764333Y-84711000D01*
X176847667Y-84877667D01*
X176931000Y-84961000D01*
X177097667Y-85044333D01*
X177764333Y-85044333D01*
X175764333Y-85877667D02*
X175931000Y-85794333D01*
X176014333Y-85627667D01*
X176014333Y-84127667D01*
X174431000Y-85794333D02*
X174597666Y-85877667D01*
X174931000Y-85877667D01*
X175097666Y-85794333D01*
X175181000Y-85627667D01*
X175181000Y-84961000D01*
X175097666Y-84794333D01*
X174931000Y-84711000D01*
X174597666Y-84711000D01*
X174431000Y-84794333D01*
X174347666Y-84961000D01*
X174347666Y-85127667D01*
X175181000Y-85294333D01*
X172847666Y-85877667D02*
X172847666Y-84961000D01*
X172931000Y-84794333D01*
X173097666Y-84711000D01*
X173431000Y-84711000D01*
X173597666Y-84794333D01*
X172847666Y-85794333D02*
X173014333Y-85877667D01*
X173431000Y-85877667D01*
X173597666Y-85794333D01*
X173681000Y-85627667D01*
X173681000Y-85461000D01*
X173597666Y-85294333D01*
X173431000Y-85211000D01*
X173014333Y-85211000D01*
X172847666Y-85127667D01*
X172097667Y-85794333D02*
X171931000Y-85877667D01*
X171597667Y-85877667D01*
X171431000Y-85794333D01*
X171347667Y-85627667D01*
X171347667Y-85544333D01*
X171431000Y-85377667D01*
X171597667Y-85294333D01*
X171847667Y-85294333D01*
X172014333Y-85211000D01*
X172097667Y-85044333D01*
X172097667Y-84961000D01*
X172014333Y-84794333D01*
X171847667Y-84711000D01*
X171597667Y-84711000D01*
X171431000Y-84794333D01*
X169931000Y-85794333D02*
X170097666Y-85877667D01*
X170431000Y-85877667D01*
X170597666Y-85794333D01*
X170681000Y-85627667D01*
X170681000Y-84961000D01*
X170597666Y-84794333D01*
X170431000Y-84711000D01*
X170097666Y-84711000D01*
X169931000Y-84794333D01*
X169847666Y-84961000D01*
X169847666Y-85127667D01*
X170681000Y-85294333D01*
X167764333Y-84711000D02*
X167764333Y-86211000D01*
X167847667Y-86377667D01*
X168014333Y-86461000D01*
X168097667Y-86461000D01*
X167764333Y-84127667D02*
X167847667Y-84211000D01*
X167764333Y-84294333D01*
X167681000Y-84211000D01*
X167764333Y-84127667D01*
X167764333Y-84294333D01*
X166681000Y-85877667D02*
X166847667Y-85794333D01*
X166931000Y-85711000D01*
X167014334Y-85544333D01*
X167014334Y-85044333D01*
X166931000Y-84877667D01*
X166847667Y-84794333D01*
X166681000Y-84711000D01*
X166431000Y-84711000D01*
X166264334Y-84794333D01*
X166181000Y-84877667D01*
X166097667Y-85044333D01*
X166097667Y-85544333D01*
X166181000Y-85711000D01*
X166264334Y-85794333D01*
X166431000Y-85877667D01*
X166681000Y-85877667D01*
X165347667Y-85877667D02*
X165347667Y-84711000D01*
X165347667Y-84127667D02*
X165431001Y-84211000D01*
X165347667Y-84294333D01*
X165264334Y-84211000D01*
X165347667Y-84127667D01*
X165347667Y-84294333D01*
X164514334Y-84711000D02*
X164514334Y-85877667D01*
X164514334Y-84877667D02*
X164431001Y-84794333D01*
X164264334Y-84711000D01*
X164014334Y-84711000D01*
X163847668Y-84794333D01*
X163764334Y-84961000D01*
X163764334Y-85877667D01*
X160847668Y-84711000D02*
X160847668Y-85877667D01*
X161597668Y-84711000D02*
X161597668Y-85627667D01*
X161514335Y-85794333D01*
X161347668Y-85877667D01*
X161097668Y-85877667D01*
X160931002Y-85794333D01*
X160847668Y-85711000D01*
X160097669Y-85794333D02*
X159931002Y-85877667D01*
X159597669Y-85877667D01*
X159431002Y-85794333D01*
X159347669Y-85627667D01*
X159347669Y-85544333D01*
X159431002Y-85377667D01*
X159597669Y-85294333D01*
X159847669Y-85294333D01*
X160014335Y-85211000D01*
X160097669Y-85044333D01*
X160097669Y-84961000D01*
X160014335Y-84794333D01*
X159847669Y-84711000D01*
X159597669Y-84711000D01*
X159431002Y-84794333D01*
X157514335Y-84711000D02*
X156847669Y-84711000D01*
X157264335Y-85877667D02*
X157264335Y-84377667D01*
X157181002Y-84211000D01*
X157014335Y-84127667D01*
X156847669Y-84127667D01*
X156014335Y-85877667D02*
X156181002Y-85794333D01*
X156264335Y-85711000D01*
X156347669Y-85544333D01*
X156347669Y-85044333D01*
X156264335Y-84877667D01*
X156181002Y-84794333D01*
X156014335Y-84711000D01*
X155764335Y-84711000D01*
X155597669Y-84794333D01*
X155514335Y-84877667D01*
X155431002Y-85044333D01*
X155431002Y-85544333D01*
X155514335Y-85711000D01*
X155597669Y-85794333D01*
X155764335Y-85877667D01*
X156014335Y-85877667D01*
X154681002Y-85877667D02*
X154681002Y-84711000D01*
X154681002Y-85044333D02*
X154597669Y-84877667D01*
X154514336Y-84794333D01*
X154347669Y-84711000D01*
X154181002Y-84711000D01*
X152514336Y-84711000D02*
X151847670Y-84711000D01*
X152264336Y-84127667D02*
X152264336Y-85627667D01*
X152181003Y-85794333D01*
X152014336Y-85877667D01*
X151847670Y-85877667D01*
X151264336Y-85877667D02*
X151264336Y-84127667D01*
X150514336Y-85877667D02*
X150514336Y-84961000D01*
X150597670Y-84794333D01*
X150764336Y-84711000D01*
X151014336Y-84711000D01*
X151181003Y-84794333D01*
X151264336Y-84877667D01*
X149014337Y-85794333D02*
X149181003Y-85877667D01*
X149514337Y-85877667D01*
X149681003Y-85794333D01*
X149764337Y-85627667D01*
X149764337Y-84961000D01*
X149681003Y-84794333D01*
X149514337Y-84711000D01*
X149181003Y-84711000D01*
X149014337Y-84794333D01*
X148931003Y-84961000D01*
X148931003Y-85127667D01*
X149764337Y-85294333D01*
X146097670Y-85794333D02*
X146264337Y-85877667D01*
X146597670Y-85877667D01*
X146764337Y-85794333D01*
X146847670Y-85711000D01*
X146931004Y-85544333D01*
X146931004Y-85044333D01*
X146847670Y-84877667D01*
X146764337Y-84794333D01*
X146597670Y-84711000D01*
X146264337Y-84711000D01*
X146097670Y-84794333D01*
X144681004Y-85794333D02*
X144847670Y-85877667D01*
X145181004Y-85877667D01*
X145347670Y-85794333D01*
X145431004Y-85627667D01*
X145431004Y-84961000D01*
X145347670Y-84794333D01*
X145181004Y-84711000D01*
X144847670Y-84711000D01*
X144681004Y-84794333D01*
X144597670Y-84961000D01*
X144597670Y-85127667D01*
X145431004Y-85294333D01*
X143847670Y-85877667D02*
X143847670Y-84711000D01*
X143847670Y-85044333D02*
X143764337Y-84877667D01*
X143681004Y-84794333D01*
X143514337Y-84711000D01*
X143347670Y-84711000D01*
X142097671Y-85794333D02*
X142264337Y-85877667D01*
X142597671Y-85877667D01*
X142764337Y-85794333D01*
X142847671Y-85627667D01*
X142847671Y-84961000D01*
X142764337Y-84794333D01*
X142597671Y-84711000D01*
X142264337Y-84711000D01*
X142097671Y-84794333D01*
X142014337Y-84961000D01*
X142014337Y-85127667D01*
X142847671Y-85294333D01*
X141264337Y-85877667D02*
X141264337Y-84711000D01*
X141264337Y-84877667D02*
X141181004Y-84794333D01*
X141014337Y-84711000D01*
X140764337Y-84711000D01*
X140597671Y-84794333D01*
X140514337Y-84961000D01*
X140514337Y-85877667D01*
X140514337Y-84961000D02*
X140431004Y-84794333D01*
X140264337Y-84711000D01*
X140014337Y-84711000D01*
X139847671Y-84794333D01*
X139764337Y-84961000D01*
X139764337Y-85877667D01*
X138681004Y-85877667D02*
X138847671Y-85794333D01*
X138931004Y-85711000D01*
X139014338Y-85544333D01*
X139014338Y-85044333D01*
X138931004Y-84877667D01*
X138847671Y-84794333D01*
X138681004Y-84711000D01*
X138431004Y-84711000D01*
X138264338Y-84794333D01*
X138181004Y-84877667D01*
X138097671Y-85044333D01*
X138097671Y-85544333D01*
X138181004Y-85711000D01*
X138264338Y-85794333D01*
X138431004Y-85877667D01*
X138681004Y-85877667D01*
X137347671Y-84711000D02*
X137347671Y-85877667D01*
X137347671Y-84877667D02*
X137264338Y-84794333D01*
X137097671Y-84711000D01*
X136847671Y-84711000D01*
X136681005Y-84794333D01*
X136597671Y-84961000D01*
X136597671Y-85877667D01*
X135931005Y-84711000D02*
X135514338Y-85877667D01*
X135097672Y-84711000D02*
X135514338Y-85877667D01*
X135681005Y-86294333D01*
X135764338Y-86377667D01*
X135931005Y-86461000D01*
X178014333Y-87636000D02*
X177347667Y-87636000D01*
X177764333Y-88802667D02*
X177764333Y-87302667D01*
X177681000Y-87136000D01*
X177514333Y-87052667D01*
X177347667Y-87052667D01*
X176514333Y-88802667D02*
X176681000Y-88719333D01*
X176764333Y-88636000D01*
X176847667Y-88469333D01*
X176847667Y-87969333D01*
X176764333Y-87802667D01*
X176681000Y-87719333D01*
X176514333Y-87636000D01*
X176264333Y-87636000D01*
X176097667Y-87719333D01*
X176014333Y-87802667D01*
X175931000Y-87969333D01*
X175931000Y-88469333D01*
X176014333Y-88636000D01*
X176097667Y-88719333D01*
X176264333Y-88802667D01*
X176514333Y-88802667D01*
X174931000Y-88802667D02*
X175097667Y-88719333D01*
X175181000Y-88552667D01*
X175181000Y-87052667D01*
X174014333Y-88802667D02*
X174181000Y-88719333D01*
X174264333Y-88552667D01*
X174264333Y-87052667D01*
X173097666Y-88802667D02*
X173264333Y-88719333D01*
X173347666Y-88636000D01*
X173431000Y-88469333D01*
X173431000Y-87969333D01*
X173347666Y-87802667D01*
X173264333Y-87719333D01*
X173097666Y-87636000D01*
X172847666Y-87636000D01*
X172681000Y-87719333D01*
X172597666Y-87802667D01*
X172514333Y-87969333D01*
X172514333Y-88469333D01*
X172597666Y-88636000D01*
X172681000Y-88719333D01*
X172847666Y-88802667D01*
X173097666Y-88802667D01*
X171931000Y-87636000D02*
X171597667Y-88802667D01*
X171264333Y-87969333D01*
X170931000Y-88802667D01*
X170597667Y-87636000D01*
X169264334Y-88719333D02*
X169431000Y-88802667D01*
X169764334Y-88802667D01*
X169931000Y-88719333D01*
X170014334Y-88552667D01*
X170014334Y-87886000D01*
X169931000Y-87719333D01*
X169764334Y-87636000D01*
X169431000Y-87636000D01*
X169264334Y-87719333D01*
X169181000Y-87886000D01*
X169181000Y-88052667D01*
X170014334Y-88219333D01*
X167681000Y-88802667D02*
X167681000Y-87052667D01*
X167681000Y-88719333D02*
X167847667Y-88802667D01*
X168181000Y-88802667D01*
X168347667Y-88719333D01*
X168431000Y-88636000D01*
X168514334Y-88469333D01*
X168514334Y-87969333D01*
X168431000Y-87802667D01*
X168347667Y-87719333D01*
X168181000Y-87636000D01*
X167847667Y-87636000D01*
X167681000Y-87719333D01*
X165514334Y-88802667D02*
X165514334Y-87052667D01*
X165514334Y-87719333D02*
X165347668Y-87636000D01*
X165014334Y-87636000D01*
X164847668Y-87719333D01*
X164764334Y-87802667D01*
X164681001Y-87969333D01*
X164681001Y-88469333D01*
X164764334Y-88636000D01*
X164847668Y-88719333D01*
X165014334Y-88802667D01*
X165347668Y-88802667D01*
X165514334Y-88719333D01*
X164097668Y-87636000D02*
X163681001Y-88802667D01*
X163264335Y-87636000D02*
X163681001Y-88802667D01*
X163847668Y-89219333D01*
X163931001Y-89302667D01*
X164097668Y-89386000D01*
X160514335Y-88802667D02*
X160514335Y-87886000D01*
X160597669Y-87719333D01*
X160764335Y-87636000D01*
X161097669Y-87636000D01*
X161264335Y-87719333D01*
X160514335Y-88719333D02*
X160681002Y-88802667D01*
X161097669Y-88802667D01*
X161264335Y-88719333D01*
X161347669Y-88552667D01*
X161347669Y-88386000D01*
X161264335Y-88219333D01*
X161097669Y-88136000D01*
X160681002Y-88136000D01*
X160514335Y-88052667D01*
X159681002Y-87636000D02*
X159681002Y-88802667D01*
X159681002Y-87802667D02*
X159597669Y-87719333D01*
X159431002Y-87636000D01*
X159181002Y-87636000D01*
X159014336Y-87719333D01*
X158931002Y-87886000D01*
X158931002Y-88802667D01*
X156097670Y-88719333D02*
X156264336Y-88802667D01*
X156597670Y-88802667D01*
X156764336Y-88719333D01*
X156847670Y-88552667D01*
X156847670Y-87886000D01*
X156764336Y-87719333D01*
X156597670Y-87636000D01*
X156264336Y-87636000D01*
X156097670Y-87719333D01*
X156014336Y-87886000D01*
X156014336Y-88052667D01*
X156847670Y-88219333D01*
X155431003Y-87636000D02*
X155014336Y-88802667D01*
X154597670Y-87636000D01*
X153264337Y-88719333D02*
X153431003Y-88802667D01*
X153764337Y-88802667D01*
X153931003Y-88719333D01*
X154014337Y-88552667D01*
X154014337Y-87886000D01*
X153931003Y-87719333D01*
X153764337Y-87636000D01*
X153431003Y-87636000D01*
X153264337Y-87719333D01*
X153181003Y-87886000D01*
X153181003Y-88052667D01*
X154014337Y-88219333D01*
X152431003Y-87636000D02*
X152431003Y-88802667D01*
X152431003Y-87802667D02*
X152347670Y-87719333D01*
X152181003Y-87636000D01*
X151931003Y-87636000D01*
X151764337Y-87719333D01*
X151681003Y-87886000D01*
X151681003Y-88802667D01*
X150847670Y-88802667D02*
X150847670Y-87636000D01*
X150847670Y-87052667D02*
X150931004Y-87136000D01*
X150847670Y-87219333D01*
X150764337Y-87136000D01*
X150847670Y-87052667D01*
X150847670Y-87219333D01*
X150014337Y-87636000D02*
X150014337Y-88802667D01*
X150014337Y-87802667D02*
X149931004Y-87719333D01*
X149764337Y-87636000D01*
X149514337Y-87636000D01*
X149347671Y-87719333D01*
X149264337Y-87886000D01*
X149264337Y-88802667D01*
X147681004Y-87636000D02*
X147681004Y-89052667D01*
X147764338Y-89219333D01*
X147847671Y-89302667D01*
X148014338Y-89386000D01*
X148264338Y-89386000D01*
X148431004Y-89302667D01*
X147681004Y-88719333D02*
X147847671Y-88802667D01*
X148181004Y-88802667D01*
X148347671Y-88719333D01*
X148431004Y-88636000D01*
X148514338Y-88469333D01*
X148514338Y-87969333D01*
X148431004Y-87802667D01*
X148347671Y-87719333D01*
X148181004Y-87636000D01*
X147847671Y-87636000D01*
X147681004Y-87719333D01*
X145514338Y-88802667D02*
X145514338Y-87636000D01*
X145514338Y-87969333D02*
X145431005Y-87802667D01*
X145347672Y-87719333D01*
X145181005Y-87636000D01*
X145014338Y-87636000D01*
X144431005Y-88802667D02*
X144431005Y-87636000D01*
X144431005Y-87052667D02*
X144514339Y-87136000D01*
X144431005Y-87219333D01*
X144347672Y-87136000D01*
X144431005Y-87052667D01*
X144431005Y-87219333D01*
X143764339Y-87636000D02*
X143347672Y-88802667D01*
X142931006Y-87636000D01*
X141597673Y-88719333D02*
X141764339Y-88802667D01*
X142097673Y-88802667D01*
X142264339Y-88719333D01*
X142347673Y-88552667D01*
X142347673Y-87886000D01*
X142264339Y-87719333D01*
X142097673Y-87636000D01*
X141764339Y-87636000D01*
X141597673Y-87719333D01*
X141514339Y-87886000D01*
X141514339Y-88052667D01*
X142347673Y-88219333D01*
X140764339Y-88802667D02*
X140764339Y-87636000D01*
X140764339Y-87969333D02*
X140681006Y-87802667D01*
X140597673Y-87719333D01*
X140431006Y-87636000D01*
X140264339Y-87636000D01*
X137597673Y-88719333D02*
X137764340Y-88802667D01*
X138097673Y-88802667D01*
X138264340Y-88719333D01*
X138347673Y-88636000D01*
X138431007Y-88469333D01*
X138431007Y-87969333D01*
X138347673Y-87802667D01*
X138264340Y-87719333D01*
X138097673Y-87636000D01*
X137764340Y-87636000D01*
X137597673Y-87719333D01*
X136847673Y-88802667D02*
X136847673Y-87636000D01*
X136847673Y-87969333D02*
X136764340Y-87802667D01*
X136681007Y-87719333D01*
X136514340Y-87636000D01*
X136347673Y-87636000D01*
X135014340Y-87636000D02*
X135014340Y-88802667D01*
X135764340Y-87636000D02*
X135764340Y-88552667D01*
X135681007Y-88719333D01*
X135514340Y-88802667D01*
X135264340Y-88802667D01*
X135097674Y-88719333D01*
X135014340Y-88636000D01*
X134181007Y-88802667D02*
X134181007Y-87636000D01*
X134181007Y-87052667D02*
X134264341Y-87136000D01*
X134181007Y-87219333D01*
X134097674Y-87136000D01*
X134181007Y-87052667D01*
X134181007Y-87219333D01*
X133431008Y-88719333D02*
X133264341Y-88802667D01*
X132931008Y-88802667D01*
X132764341Y-88719333D01*
X132681008Y-88552667D01*
X132681008Y-88469333D01*
X132764341Y-88302667D01*
X132931008Y-88219333D01*
X133181008Y-88219333D01*
X133347674Y-88136000D01*
X133431008Y-87969333D01*
X133431008Y-87886000D01*
X133347674Y-87719333D01*
X133181008Y-87636000D01*
X132931008Y-87636000D01*
X132764341Y-87719333D01*
X131264341Y-88719333D02*
X131431007Y-88802667D01*
X131764341Y-88802667D01*
X131931007Y-88719333D01*
X132014341Y-88552667D01*
X132014341Y-87886000D01*
X131931007Y-87719333D01*
X131764341Y-87636000D01*
X131431007Y-87636000D01*
X131264341Y-87719333D01*
X131181007Y-87886000D01*
X131181007Y-88052667D01*
X132014341Y-88219333D01*
X177931000Y-90561000D02*
X177597667Y-91727667D01*
X177264333Y-90894333D01*
X176931000Y-91727667D01*
X176597667Y-90561000D01*
X175931000Y-91727667D02*
X175931000Y-90561000D01*
X175931000Y-89977667D02*
X176014334Y-90061000D01*
X175931000Y-90144333D01*
X175847667Y-90061000D01*
X175931000Y-89977667D01*
X175931000Y-90144333D01*
X175347667Y-90561000D02*
X174681001Y-90561000D01*
X175097667Y-89977667D02*
X175097667Y-91477667D01*
X175014334Y-91644333D01*
X174847667Y-91727667D01*
X174681001Y-91727667D01*
X174097667Y-91727667D02*
X174097667Y-89977667D01*
X173347667Y-91727667D02*
X173347667Y-90811000D01*
X173431001Y-90644333D01*
X173597667Y-90561000D01*
X173847667Y-90561000D01*
X174014334Y-90644333D01*
X174097667Y-90727667D01*
X171431001Y-90561000D02*
X170764335Y-90561000D01*
X171181001Y-91727667D02*
X171181001Y-90227667D01*
X171097668Y-90061000D01*
X170931001Y-89977667D01*
X170764335Y-89977667D01*
X169931001Y-91727667D02*
X170097668Y-91644333D01*
X170181001Y-91561000D01*
X170264335Y-91394333D01*
X170264335Y-90894333D01*
X170181001Y-90727667D01*
X170097668Y-90644333D01*
X169931001Y-90561000D01*
X169681001Y-90561000D01*
X169514335Y-90644333D01*
X169431001Y-90727667D01*
X169347668Y-90894333D01*
X169347668Y-91394333D01*
X169431001Y-91561000D01*
X169514335Y-91644333D01*
X169681001Y-91727667D01*
X169931001Y-91727667D01*
X168347668Y-91727667D02*
X168514335Y-91644333D01*
X168597668Y-91561000D01*
X168681002Y-91394333D01*
X168681002Y-90894333D01*
X168597668Y-90727667D01*
X168514335Y-90644333D01*
X168347668Y-90561000D01*
X168097668Y-90561000D01*
X167931002Y-90644333D01*
X167847668Y-90727667D01*
X167764335Y-90894333D01*
X167764335Y-91394333D01*
X167847668Y-91561000D01*
X167931002Y-91644333D01*
X168097668Y-91727667D01*
X168347668Y-91727667D01*
X166264335Y-91727667D02*
X166264335Y-89977667D01*
X166264335Y-91644333D02*
X166431002Y-91727667D01*
X166764335Y-91727667D01*
X166931002Y-91644333D01*
X167014335Y-91561000D01*
X167097669Y-91394333D01*
X167097669Y-90894333D01*
X167014335Y-90727667D01*
X166931002Y-90644333D01*
X166764335Y-90561000D01*
X166431002Y-90561000D01*
X166264335Y-90644333D01*
X165347669Y-91644333D02*
X165347669Y-91727667D01*
X165431002Y-91894333D01*
X165514336Y-91977667D01*
X162514336Y-91727667D02*
X162514336Y-89977667D01*
X162514336Y-91644333D02*
X162681003Y-91727667D01*
X163014336Y-91727667D01*
X163181003Y-91644333D01*
X163264336Y-91561000D01*
X163347670Y-91394333D01*
X163347670Y-90894333D01*
X163264336Y-90727667D01*
X163181003Y-90644333D01*
X163014336Y-90561000D01*
X162681003Y-90561000D01*
X162514336Y-90644333D01*
X161681003Y-91727667D02*
X161681003Y-90561000D01*
X161681003Y-90894333D02*
X161597670Y-90727667D01*
X161514337Y-90644333D01*
X161347670Y-90561000D01*
X161181003Y-90561000D01*
X160597670Y-91727667D02*
X160597670Y-90561000D01*
X160597670Y-89977667D02*
X160681004Y-90061000D01*
X160597670Y-90144333D01*
X160514337Y-90061000D01*
X160597670Y-89977667D01*
X160597670Y-90144333D01*
X159764337Y-90561000D02*
X159764337Y-91727667D01*
X159764337Y-90727667D02*
X159681004Y-90644333D01*
X159514337Y-90561000D01*
X159264337Y-90561000D01*
X159097671Y-90644333D01*
X159014337Y-90811000D01*
X159014337Y-91727667D01*
X158181004Y-91727667D02*
X158181004Y-89977667D01*
X158014338Y-91061000D02*
X157514338Y-91727667D01*
X157514338Y-90561000D02*
X158181004Y-91227667D01*
X156847671Y-91644333D02*
X156681004Y-91727667D01*
X156347671Y-91727667D01*
X156181004Y-91644333D01*
X156097671Y-91477667D01*
X156097671Y-91394333D01*
X156181004Y-91227667D01*
X156347671Y-91144333D01*
X156597671Y-91144333D01*
X156764337Y-91061000D01*
X156847671Y-90894333D01*
X156847671Y-90811000D01*
X156764337Y-90644333D01*
X156597671Y-90561000D01*
X156347671Y-90561000D01*
X156181004Y-90644333D01*
X153264337Y-91727667D02*
X153264337Y-90811000D01*
X153347671Y-90644333D01*
X153514337Y-90561000D01*
X153847671Y-90561000D01*
X154014337Y-90644333D01*
X153264337Y-91644333D02*
X153431004Y-91727667D01*
X153847671Y-91727667D01*
X154014337Y-91644333D01*
X154097671Y-91477667D01*
X154097671Y-91311000D01*
X154014337Y-91144333D01*
X153847671Y-91061000D01*
X153431004Y-91061000D01*
X153264337Y-90977667D01*
X152431004Y-90561000D02*
X152431004Y-91727667D01*
X152431004Y-90727667D02*
X152347671Y-90644333D01*
X152181004Y-90561000D01*
X151931004Y-90561000D01*
X151764338Y-90644333D01*
X151681004Y-90811000D01*
X151681004Y-91727667D01*
X150097671Y-91727667D02*
X150097671Y-89977667D01*
X150097671Y-91644333D02*
X150264338Y-91727667D01*
X150597671Y-91727667D01*
X150764338Y-91644333D01*
X150847671Y-91561000D01*
X150931005Y-91394333D01*
X150931005Y-90894333D01*
X150847671Y-90727667D01*
X150764338Y-90644333D01*
X150597671Y-90561000D01*
X150264338Y-90561000D01*
X150097671Y-90644333D01*
X147181005Y-91727667D02*
X147181005Y-89977667D01*
X147181005Y-91644333D02*
X147347672Y-91727667D01*
X147681005Y-91727667D01*
X147847672Y-91644333D01*
X147931005Y-91561000D01*
X148014339Y-91394333D01*
X148014339Y-90894333D01*
X147931005Y-90727667D01*
X147847672Y-90644333D01*
X147681005Y-90561000D01*
X147347672Y-90561000D01*
X147181005Y-90644333D01*
X145597672Y-91727667D02*
X145597672Y-90811000D01*
X145681006Y-90644333D01*
X145847672Y-90561000D01*
X146181006Y-90561000D01*
X146347672Y-90644333D01*
X145597672Y-91644333D02*
X145764339Y-91727667D01*
X146181006Y-91727667D01*
X146347672Y-91644333D01*
X146431006Y-91477667D01*
X146431006Y-91311000D01*
X146347672Y-91144333D01*
X146181006Y-91061000D01*
X145764339Y-91061000D01*
X145597672Y-90977667D01*
X144764339Y-90561000D02*
X144764339Y-91727667D01*
X144764339Y-90727667D02*
X144681006Y-90644333D01*
X144514339Y-90561000D01*
X144264339Y-90561000D01*
X144097673Y-90644333D01*
X144014339Y-90811000D01*
X144014339Y-91727667D01*
X142431006Y-91644333D02*
X142597673Y-91727667D01*
X142931006Y-91727667D01*
X143097673Y-91644333D01*
X143181006Y-91561000D01*
X143264340Y-91394333D01*
X143264340Y-90894333D01*
X143181006Y-90727667D01*
X143097673Y-90644333D01*
X142931006Y-90561000D01*
X142597673Y-90561000D01*
X142431006Y-90644333D01*
X141681006Y-91727667D02*
X141681006Y-90561000D01*
X141681006Y-89977667D02*
X141764340Y-90061000D01*
X141681006Y-90144333D01*
X141597673Y-90061000D01*
X141681006Y-89977667D01*
X141681006Y-90144333D01*
X140847673Y-90561000D02*
X140847673Y-91727667D01*
X140847673Y-90727667D02*
X140764340Y-90644333D01*
X140597673Y-90561000D01*
X140347673Y-90561000D01*
X140181007Y-90644333D01*
X140097673Y-90811000D01*
X140097673Y-91727667D01*
X138514340Y-90561000D02*
X138514340Y-91977667D01*
X138597674Y-92144333D01*
X138681007Y-92227667D01*
X138847674Y-92311000D01*
X139097674Y-92311000D01*
X139264340Y-92227667D01*
X138514340Y-91644333D02*
X138681007Y-91727667D01*
X139014340Y-91727667D01*
X139181007Y-91644333D01*
X139264340Y-91561000D01*
X139347674Y-91394333D01*
X139347674Y-90894333D01*
X139264340Y-90727667D01*
X139181007Y-90644333D01*
X139014340Y-90561000D01*
X138681007Y-90561000D01*
X138514340Y-90644333D01*
M02*
