G04 #@! TF.FileFunction,Legend,Top*
%FSLAX46Y46*%
G04 Gerber Fmt 4.6, Leading zero omitted, Abs format (unit mm)*
G04 Created by KiCad (PCBNEW 4.0.7-e2-6376~58~ubuntu16.04.1) date Wed Jun 13 19:58:53 2018*
%MOMM*%
%LPD*%
G01*
G04 APERTURE LIST*
%ADD10C,0.100000*%
%ADD11C,0.300000*%
%ADD12C,0.400000*%
%ADD13C,0.120000*%
G04 APERTURE END LIST*
D10*
D11*
X141097786Y-108537262D02*
X139954928Y-108537262D01*
X140526357Y-108537262D02*
X140526357Y-106537262D01*
X140335881Y-106822976D01*
X140145405Y-107013452D01*
X139954928Y-107108690D01*
X142907309Y-106537262D02*
X141954928Y-106537262D01*
X141859690Y-107489643D01*
X141954928Y-107394405D01*
X142145405Y-107299167D01*
X142621595Y-107299167D01*
X142812071Y-107394405D01*
X142907309Y-107489643D01*
X143002548Y-107680119D01*
X143002548Y-108156310D01*
X142907309Y-108346786D01*
X142812071Y-108442024D01*
X142621595Y-108537262D01*
X142145405Y-108537262D01*
X141954928Y-108442024D01*
X141859690Y-108346786D01*
X145288262Y-106442024D02*
X143573976Y-109013452D01*
X146335881Y-106537262D02*
X146526357Y-106537262D01*
X146716833Y-106632500D01*
X146812071Y-106727738D01*
X146907309Y-106918214D01*
X147002548Y-107299167D01*
X147002548Y-107775357D01*
X146907309Y-108156310D01*
X146812071Y-108346786D01*
X146716833Y-108442024D01*
X146526357Y-108537262D01*
X146335881Y-108537262D01*
X146145405Y-108442024D01*
X146050167Y-108346786D01*
X145954928Y-108156310D01*
X145859690Y-107775357D01*
X145859690Y-107299167D01*
X145954928Y-106918214D01*
X146050167Y-106727738D01*
X146145405Y-106632500D01*
X146335881Y-106537262D01*
X147954929Y-108537262D02*
X148335881Y-108537262D01*
X148526357Y-108442024D01*
X148621595Y-108346786D01*
X148812071Y-108061071D01*
X148907310Y-107680119D01*
X148907310Y-106918214D01*
X148812071Y-106727738D01*
X148716833Y-106632500D01*
X148526357Y-106537262D01*
X148145405Y-106537262D01*
X147954929Y-106632500D01*
X147859690Y-106727738D01*
X147764452Y-106918214D01*
X147764452Y-107394405D01*
X147859690Y-107584881D01*
X147954929Y-107680119D01*
X148145405Y-107775357D01*
X148526357Y-107775357D01*
X148716833Y-107680119D01*
X148812071Y-107584881D01*
X148907310Y-107394405D01*
X151193024Y-106442024D02*
X149478738Y-109013452D01*
X152907310Y-108537262D02*
X151764452Y-108537262D01*
X152335881Y-108537262D02*
X152335881Y-106537262D01*
X152145405Y-106822976D01*
X151954929Y-107013452D01*
X151764452Y-107108690D01*
X154050167Y-107394405D02*
X153859691Y-107299167D01*
X153764452Y-107203929D01*
X153669214Y-107013452D01*
X153669214Y-106918214D01*
X153764452Y-106727738D01*
X153859691Y-106632500D01*
X154050167Y-106537262D01*
X154431119Y-106537262D01*
X154621595Y-106632500D01*
X154716833Y-106727738D01*
X154812072Y-106918214D01*
X154812072Y-107013452D01*
X154716833Y-107203929D01*
X154621595Y-107299167D01*
X154431119Y-107394405D01*
X154050167Y-107394405D01*
X153859691Y-107489643D01*
X153764452Y-107584881D01*
X153669214Y-107775357D01*
X153669214Y-108156310D01*
X153764452Y-108346786D01*
X153859691Y-108442024D01*
X154050167Y-108537262D01*
X154431119Y-108537262D01*
X154621595Y-108442024D01*
X154716833Y-108346786D01*
X154812072Y-108156310D01*
X154812072Y-107775357D01*
X154716833Y-107584881D01*
X154621595Y-107489643D01*
X154431119Y-107394405D01*
D12*
X130784042Y-84817381D02*
X130784042Y-85769762D01*
X130117375Y-83769762D02*
X130784042Y-84817381D01*
X131450709Y-83769762D01*
X132403090Y-85769762D02*
X132212614Y-85674524D01*
X132117375Y-85579286D01*
X132022137Y-85388810D01*
X132022137Y-84817381D01*
X132117375Y-84626905D01*
X132212614Y-84531667D01*
X132403090Y-84436429D01*
X132688804Y-84436429D01*
X132879280Y-84531667D01*
X132974518Y-84626905D01*
X133069756Y-84817381D01*
X133069756Y-85388810D01*
X132974518Y-85579286D01*
X132879280Y-85674524D01*
X132688804Y-85769762D01*
X132403090Y-85769762D01*
X134784042Y-84436429D02*
X134784042Y-85769762D01*
X133926899Y-84436429D02*
X133926899Y-85484048D01*
X134022138Y-85674524D01*
X134212614Y-85769762D01*
X134498328Y-85769762D01*
X134688804Y-85674524D01*
X134784042Y-85579286D01*
X138117376Y-85769762D02*
X138117376Y-84722143D01*
X138022138Y-84531667D01*
X137831662Y-84436429D01*
X137450710Y-84436429D01*
X137260233Y-84531667D01*
X138117376Y-85674524D02*
X137926900Y-85769762D01*
X137450710Y-85769762D01*
X137260233Y-85674524D01*
X137164995Y-85484048D01*
X137164995Y-85293571D01*
X137260233Y-85103095D01*
X137450710Y-85007857D01*
X137926900Y-85007857D01*
X138117376Y-84912619D01*
X139069757Y-85769762D02*
X139069757Y-84436429D01*
X139069757Y-84817381D02*
X139164996Y-84626905D01*
X139260234Y-84531667D01*
X139450710Y-84436429D01*
X139641186Y-84436429D01*
X141069757Y-85674524D02*
X140879281Y-85769762D01*
X140498329Y-85769762D01*
X140307852Y-85674524D01*
X140212614Y-85484048D01*
X140212614Y-84722143D01*
X140307852Y-84531667D01*
X140498329Y-84436429D01*
X140879281Y-84436429D01*
X141069757Y-84531667D01*
X141164995Y-84722143D01*
X141164995Y-84912619D01*
X140212614Y-85103095D01*
X143545948Y-85769762D02*
X143545948Y-84436429D01*
X143545948Y-83769762D02*
X143450710Y-83865000D01*
X143545948Y-83960238D01*
X143641187Y-83865000D01*
X143545948Y-83769762D01*
X143545948Y-83960238D01*
X144498329Y-84436429D02*
X144498329Y-85769762D01*
X144498329Y-84626905D02*
X144593568Y-84531667D01*
X144784044Y-84436429D01*
X145069758Y-84436429D01*
X145260234Y-84531667D01*
X145355472Y-84722143D01*
X145355472Y-85769762D01*
X146117377Y-84436429D02*
X146593568Y-85769762D01*
X147069758Y-84436429D01*
X147831663Y-85769762D02*
X147831663Y-84436429D01*
X147831663Y-83769762D02*
X147736425Y-83865000D01*
X147831663Y-83960238D01*
X147926902Y-83865000D01*
X147831663Y-83769762D01*
X147831663Y-83960238D01*
X148498330Y-84436429D02*
X149260235Y-84436429D01*
X148784044Y-83769762D02*
X148784044Y-85484048D01*
X148879283Y-85674524D01*
X149069759Y-85769762D01*
X149260235Y-85769762D01*
X150688806Y-85674524D02*
X150498330Y-85769762D01*
X150117378Y-85769762D01*
X149926901Y-85674524D01*
X149831663Y-85484048D01*
X149831663Y-84722143D01*
X149926901Y-84531667D01*
X150117378Y-84436429D01*
X150498330Y-84436429D01*
X150688806Y-84531667D01*
X150784044Y-84722143D01*
X150784044Y-84912619D01*
X149831663Y-85103095D01*
X152498330Y-85769762D02*
X152498330Y-83769762D01*
X152498330Y-85674524D02*
X152307854Y-85769762D01*
X151926902Y-85769762D01*
X151736426Y-85674524D01*
X151641187Y-85579286D01*
X151545949Y-85388810D01*
X151545949Y-84817381D01*
X151641187Y-84626905D01*
X151736426Y-84531667D01*
X151926902Y-84436429D01*
X152307854Y-84436429D01*
X152498330Y-84531667D01*
X154688807Y-84436429D02*
X155450712Y-84436429D01*
X154974521Y-83769762D02*
X154974521Y-85484048D01*
X155069760Y-85674524D01*
X155260236Y-85769762D01*
X155450712Y-85769762D01*
X156403093Y-85769762D02*
X156212617Y-85674524D01*
X156117378Y-85579286D01*
X156022140Y-85388810D01*
X156022140Y-84817381D01*
X156117378Y-84626905D01*
X156212617Y-84531667D01*
X156403093Y-84436429D01*
X156688807Y-84436429D01*
X156879283Y-84531667D01*
X156974521Y-84626905D01*
X157069759Y-84817381D01*
X157069759Y-85388810D01*
X156974521Y-85579286D01*
X156879283Y-85674524D01*
X156688807Y-85769762D01*
X156403093Y-85769762D01*
X159164998Y-84436429D02*
X159926903Y-84436429D01*
X159450712Y-83769762D02*
X159450712Y-85484048D01*
X159545951Y-85674524D01*
X159736427Y-85769762D01*
X159926903Y-85769762D01*
X160593569Y-85769762D02*
X160593569Y-83769762D01*
X161450712Y-85769762D02*
X161450712Y-84722143D01*
X161355474Y-84531667D01*
X161164998Y-84436429D01*
X160879284Y-84436429D01*
X160688808Y-84531667D01*
X160593569Y-84626905D01*
X163164998Y-85674524D02*
X162974522Y-85769762D01*
X162593570Y-85769762D01*
X162403093Y-85674524D01*
X162307855Y-85484048D01*
X162307855Y-84722143D01*
X162403093Y-84531667D01*
X162593570Y-84436429D01*
X162974522Y-84436429D01*
X163164998Y-84531667D01*
X163260236Y-84722143D01*
X163260236Y-84912619D01*
X162307855Y-85103095D01*
X165450713Y-84436429D02*
X165831666Y-85769762D01*
X166212618Y-84817381D01*
X166593570Y-85769762D01*
X166974523Y-84436429D01*
X168498332Y-85674524D02*
X168307856Y-85769762D01*
X167926904Y-85769762D01*
X167736427Y-85674524D01*
X167641189Y-85484048D01*
X167641189Y-84722143D01*
X167736427Y-84531667D01*
X167926904Y-84436429D01*
X168307856Y-84436429D01*
X168498332Y-84531667D01*
X168593570Y-84722143D01*
X168593570Y-84912619D01*
X167641189Y-85103095D01*
X170307856Y-85769762D02*
X170307856Y-83769762D01*
X170307856Y-85674524D02*
X170117380Y-85769762D01*
X169736428Y-85769762D01*
X169545952Y-85674524D01*
X169450713Y-85579286D01*
X169355475Y-85388810D01*
X169355475Y-84817381D01*
X169450713Y-84626905D01*
X169545952Y-84531667D01*
X169736428Y-84436429D01*
X170117380Y-84436429D01*
X170307856Y-84531667D01*
X172117380Y-85769762D02*
X172117380Y-83769762D01*
X172117380Y-85674524D02*
X171926904Y-85769762D01*
X171545952Y-85769762D01*
X171355476Y-85674524D01*
X171260237Y-85579286D01*
X171164999Y-85388810D01*
X171164999Y-84817381D01*
X171260237Y-84626905D01*
X171355476Y-84531667D01*
X171545952Y-84436429D01*
X171926904Y-84436429D01*
X172117380Y-84531667D01*
X173069761Y-85769762D02*
X173069761Y-84436429D01*
X173069761Y-83769762D02*
X172974523Y-83865000D01*
X173069761Y-83960238D01*
X173165000Y-83865000D01*
X173069761Y-83769762D01*
X173069761Y-83960238D01*
X174022142Y-84436429D02*
X174022142Y-85769762D01*
X174022142Y-84626905D02*
X174117381Y-84531667D01*
X174307857Y-84436429D01*
X174593571Y-84436429D01*
X174784047Y-84531667D01*
X174879285Y-84722143D01*
X174879285Y-85769762D01*
X176688809Y-84436429D02*
X176688809Y-86055476D01*
X176593571Y-86245952D01*
X176498333Y-86341190D01*
X176307857Y-86436429D01*
X176022143Y-86436429D01*
X175831666Y-86341190D01*
X176688809Y-85674524D02*
X176498333Y-85769762D01*
X176117381Y-85769762D01*
X175926905Y-85674524D01*
X175831666Y-85579286D01*
X175736428Y-85388810D01*
X175736428Y-84817381D01*
X175831666Y-84626905D01*
X175926905Y-84531667D01*
X176117381Y-84436429D01*
X176498333Y-84436429D01*
X176688809Y-84531667D01*
X152403094Y-89169762D02*
X152212618Y-89074524D01*
X152117379Y-88979286D01*
X152022141Y-88788810D01*
X152022141Y-88217381D01*
X152117379Y-88026905D01*
X152212618Y-87931667D01*
X152403094Y-87836429D01*
X152688808Y-87836429D01*
X152879284Y-87931667D01*
X152974522Y-88026905D01*
X153069760Y-88217381D01*
X153069760Y-88788810D01*
X152974522Y-88979286D01*
X152879284Y-89074524D01*
X152688808Y-89169762D01*
X152403094Y-89169762D01*
X153641189Y-87836429D02*
X154403094Y-87836429D01*
X153926903Y-89169762D02*
X153926903Y-87455476D01*
X154022142Y-87265000D01*
X154212618Y-87169762D01*
X154403094Y-87169762D01*
X157260237Y-88122143D02*
X157545951Y-88217381D01*
X157641190Y-88312619D01*
X157736428Y-88503095D01*
X157736428Y-88788810D01*
X157641190Y-88979286D01*
X157545951Y-89074524D01*
X157355475Y-89169762D01*
X156593570Y-89169762D01*
X156593570Y-87169762D01*
X157260237Y-87169762D01*
X157450713Y-87265000D01*
X157545951Y-87360238D01*
X157641190Y-87550714D01*
X157641190Y-87741190D01*
X157545951Y-87931667D01*
X157450713Y-88026905D01*
X157260237Y-88122143D01*
X156593570Y-88122143D01*
X159355475Y-89074524D02*
X159164999Y-89169762D01*
X158784047Y-89169762D01*
X158593570Y-89074524D01*
X158498332Y-88884048D01*
X158498332Y-88122143D01*
X158593570Y-87931667D01*
X158784047Y-87836429D01*
X159164999Y-87836429D01*
X159355475Y-87931667D01*
X159450713Y-88122143D01*
X159450713Y-88312619D01*
X158498332Y-88503095D01*
X160022142Y-87836429D02*
X160784047Y-87836429D01*
X160307856Y-87169762D02*
X160307856Y-88884048D01*
X160403095Y-89074524D01*
X160593571Y-89169762D01*
X160784047Y-89169762D01*
X161450713Y-89169762D02*
X161450713Y-87169762D01*
X162307856Y-89169762D02*
X162307856Y-88122143D01*
X162212618Y-87931667D01*
X162022142Y-87836429D01*
X161736428Y-87836429D01*
X161545952Y-87931667D01*
X161450713Y-88026905D01*
X165926905Y-88979286D02*
X165831667Y-89074524D01*
X165545952Y-89169762D01*
X165355476Y-89169762D01*
X165069762Y-89074524D01*
X164879286Y-88884048D01*
X164784047Y-88693571D01*
X164688809Y-88312619D01*
X164688809Y-88026905D01*
X164784047Y-87645952D01*
X164879286Y-87455476D01*
X165069762Y-87265000D01*
X165355476Y-87169762D01*
X165545952Y-87169762D01*
X165831667Y-87265000D01*
X165926905Y-87360238D01*
X167069762Y-89169762D02*
X166879286Y-89074524D01*
X166784047Y-88979286D01*
X166688809Y-88788810D01*
X166688809Y-88217381D01*
X166784047Y-88026905D01*
X166879286Y-87931667D01*
X167069762Y-87836429D01*
X167355476Y-87836429D01*
X167545952Y-87931667D01*
X167641190Y-88026905D01*
X167736428Y-88217381D01*
X167736428Y-88788810D01*
X167641190Y-88979286D01*
X167545952Y-89074524D01*
X167355476Y-89169762D01*
X167069762Y-89169762D01*
X168307857Y-87836429D02*
X169069762Y-87836429D01*
X168593571Y-87169762D02*
X168593571Y-88884048D01*
X168688810Y-89074524D01*
X168879286Y-89169762D01*
X169069762Y-89169762D01*
X169450714Y-87836429D02*
X170212619Y-87836429D01*
X169736428Y-87169762D02*
X169736428Y-88884048D01*
X169831667Y-89074524D01*
X170022143Y-89169762D01*
X170212619Y-89169762D01*
X171641190Y-89074524D02*
X171450714Y-89169762D01*
X171069762Y-89169762D01*
X170879285Y-89074524D01*
X170784047Y-88884048D01*
X170784047Y-88122143D01*
X170879285Y-87931667D01*
X171069762Y-87836429D01*
X171450714Y-87836429D01*
X171641190Y-87931667D01*
X171736428Y-88122143D01*
X171736428Y-88312619D01*
X170784047Y-88503095D01*
X172593571Y-89169762D02*
X172593571Y-87836429D01*
X172593571Y-88217381D02*
X172688810Y-88026905D01*
X172784048Y-87931667D01*
X172974524Y-87836429D01*
X173165000Y-87836429D01*
X174593571Y-89074524D02*
X174403095Y-89169762D01*
X174022143Y-89169762D01*
X173831666Y-89074524D01*
X173736428Y-88884048D01*
X173736428Y-88122143D01*
X173831666Y-87931667D01*
X174022143Y-87836429D01*
X174403095Y-87836429D01*
X174593571Y-87931667D01*
X174688809Y-88122143D01*
X174688809Y-88312619D01*
X173736428Y-88503095D01*
X175831667Y-89169762D02*
X175641191Y-89074524D01*
X175545952Y-88884048D01*
X175545952Y-87169762D01*
X176879286Y-89169762D02*
X176688810Y-89074524D01*
X176593571Y-88884048D01*
X176593571Y-87169762D01*
X152593568Y-92569762D02*
X152593568Y-91522143D01*
X152498330Y-91331667D01*
X152307854Y-91236429D01*
X151926902Y-91236429D01*
X151736425Y-91331667D01*
X152593568Y-92474524D02*
X152403092Y-92569762D01*
X151926902Y-92569762D01*
X151736425Y-92474524D01*
X151641187Y-92284048D01*
X151641187Y-92093571D01*
X151736425Y-91903095D01*
X151926902Y-91807857D01*
X152403092Y-91807857D01*
X152593568Y-91712619D01*
X153545949Y-91236429D02*
X153545949Y-92569762D01*
X153545949Y-91426905D02*
X153641188Y-91331667D01*
X153831664Y-91236429D01*
X154117378Y-91236429D01*
X154307854Y-91331667D01*
X154403092Y-91522143D01*
X154403092Y-92569762D01*
X156212616Y-92569762D02*
X156212616Y-90569762D01*
X156212616Y-92474524D02*
X156022140Y-92569762D01*
X155641188Y-92569762D01*
X155450712Y-92474524D01*
X155355473Y-92379286D01*
X155260235Y-92188810D01*
X155260235Y-91617381D01*
X155355473Y-91426905D01*
X155450712Y-91331667D01*
X155641188Y-91236429D01*
X156022140Y-91236429D01*
X156212616Y-91331667D01*
X158688807Y-92569762D02*
X158688807Y-90569762D01*
X159164998Y-90569762D01*
X159450712Y-90665000D01*
X159641188Y-90855476D01*
X159736427Y-91045952D01*
X159831665Y-91426905D01*
X159831665Y-91712619D01*
X159736427Y-92093571D01*
X159641188Y-92284048D01*
X159450712Y-92474524D01*
X159164998Y-92569762D01*
X158688807Y-92569762D01*
X161545950Y-92569762D02*
X161545950Y-91522143D01*
X161450712Y-91331667D01*
X161260236Y-91236429D01*
X160879284Y-91236429D01*
X160688807Y-91331667D01*
X161545950Y-92474524D02*
X161355474Y-92569762D01*
X160879284Y-92569762D01*
X160688807Y-92474524D01*
X160593569Y-92284048D01*
X160593569Y-92093571D01*
X160688807Y-91903095D01*
X160879284Y-91807857D01*
X161355474Y-91807857D01*
X161545950Y-91712619D01*
X162307855Y-91236429D02*
X162784046Y-92569762D01*
X163260236Y-91236429D01*
X164784046Y-92474524D02*
X164593570Y-92569762D01*
X164212618Y-92569762D01*
X164022141Y-92474524D01*
X163926903Y-92284048D01*
X163926903Y-91522143D01*
X164022141Y-91331667D01*
X164212618Y-91236429D01*
X164593570Y-91236429D01*
X164784046Y-91331667D01*
X164879284Y-91522143D01*
X164879284Y-91712619D01*
X163926903Y-91903095D01*
X167260237Y-92569762D02*
X167260237Y-90569762D01*
X168403095Y-92569762D02*
X167545952Y-91426905D01*
X168403095Y-90569762D02*
X167260237Y-91712619D01*
X169260237Y-92569762D02*
X169260237Y-91236429D01*
X169260237Y-90569762D02*
X169164999Y-90665000D01*
X169260237Y-90760238D01*
X169355476Y-90665000D01*
X169260237Y-90569762D01*
X169260237Y-90760238D01*
X170212618Y-92569762D02*
X170212618Y-91236429D01*
X170212618Y-91426905D02*
X170307857Y-91331667D01*
X170498333Y-91236429D01*
X170784047Y-91236429D01*
X170974523Y-91331667D01*
X171069761Y-91522143D01*
X171069761Y-92569762D01*
X171069761Y-91522143D02*
X171164999Y-91331667D01*
X171355476Y-91236429D01*
X171641190Y-91236429D01*
X171831666Y-91331667D01*
X171926904Y-91522143D01*
X171926904Y-92569762D01*
X172879285Y-92569762D02*
X172879285Y-90569762D01*
X172879285Y-91331667D02*
X173069762Y-91236429D01*
X173450714Y-91236429D01*
X173641190Y-91331667D01*
X173736428Y-91426905D01*
X173831666Y-91617381D01*
X173831666Y-92188810D01*
X173736428Y-92379286D01*
X173641190Y-92474524D01*
X173450714Y-92569762D01*
X173069762Y-92569762D01*
X172879285Y-92474524D01*
X175450714Y-92474524D02*
X175260238Y-92569762D01*
X174879286Y-92569762D01*
X174688809Y-92474524D01*
X174593571Y-92284048D01*
X174593571Y-91522143D01*
X174688809Y-91331667D01*
X174879286Y-91236429D01*
X175260238Y-91236429D01*
X175450714Y-91331667D01*
X175545952Y-91522143D01*
X175545952Y-91712619D01*
X174593571Y-91903095D01*
X176403095Y-92569762D02*
X176403095Y-91236429D01*
X176403095Y-91617381D02*
X176498334Y-91426905D01*
X176593572Y-91331667D01*
X176784048Y-91236429D01*
X176974524Y-91236429D01*
D13*
X187550000Y-94660000D02*
X187550000Y-98380000D01*
X185830000Y-94660000D02*
X185830000Y-98380000D01*
X183010722Y-95340277D02*
G75*
G03X178399420Y-95340000I-2305722J-1179723D01*
G01*
X183010722Y-97699723D02*
G75*
G02X178399420Y-97700000I-2305722J1179723D01*
G01*
X183010722Y-97699723D02*
G75*
G03X183010580Y-95340000I-2305722J1179723D01*
G01*
X180705000Y-93970000D02*
X180705000Y-99070000D01*
X180745000Y-93970000D02*
X180745000Y-95540000D01*
X180745000Y-97500000D02*
X180745000Y-99070000D01*
X180785000Y-93971000D02*
X180785000Y-95540000D01*
X180785000Y-97500000D02*
X180785000Y-99069000D01*
X180825000Y-93972000D02*
X180825000Y-95540000D01*
X180825000Y-97500000D02*
X180825000Y-99068000D01*
X180865000Y-93974000D02*
X180865000Y-95540000D01*
X180865000Y-97500000D02*
X180865000Y-99066000D01*
X180905000Y-93977000D02*
X180905000Y-95540000D01*
X180905000Y-97500000D02*
X180905000Y-99063000D01*
X180945000Y-93981000D02*
X180945000Y-95540000D01*
X180945000Y-97500000D02*
X180945000Y-99059000D01*
X180985000Y-93985000D02*
X180985000Y-95540000D01*
X180985000Y-97500000D02*
X180985000Y-99055000D01*
X181025000Y-93989000D02*
X181025000Y-95540000D01*
X181025000Y-97500000D02*
X181025000Y-99051000D01*
X181065000Y-93995000D02*
X181065000Y-95540000D01*
X181065000Y-97500000D02*
X181065000Y-99045000D01*
X181105000Y-94001000D02*
X181105000Y-95540000D01*
X181105000Y-97500000D02*
X181105000Y-99039000D01*
X181145000Y-94007000D02*
X181145000Y-95540000D01*
X181145000Y-97500000D02*
X181145000Y-99033000D01*
X181185000Y-94014000D02*
X181185000Y-95540000D01*
X181185000Y-97500000D02*
X181185000Y-99026000D01*
X181225000Y-94022000D02*
X181225000Y-95540000D01*
X181225000Y-97500000D02*
X181225000Y-99018000D01*
X181265000Y-94031000D02*
X181265000Y-95540000D01*
X181265000Y-97500000D02*
X181265000Y-99009000D01*
X181305000Y-94040000D02*
X181305000Y-95540000D01*
X181305000Y-97500000D02*
X181305000Y-99000000D01*
X181345000Y-94050000D02*
X181345000Y-95540000D01*
X181345000Y-97500000D02*
X181345000Y-98990000D01*
X181385000Y-94060000D02*
X181385000Y-95540000D01*
X181385000Y-97500000D02*
X181385000Y-98980000D01*
X181426000Y-94072000D02*
X181426000Y-95540000D01*
X181426000Y-97500000D02*
X181426000Y-98968000D01*
X181466000Y-94084000D02*
X181466000Y-95540000D01*
X181466000Y-97500000D02*
X181466000Y-98956000D01*
X181506000Y-94096000D02*
X181506000Y-95540000D01*
X181506000Y-97500000D02*
X181506000Y-98944000D01*
X181546000Y-94110000D02*
X181546000Y-95540000D01*
X181546000Y-97500000D02*
X181546000Y-98930000D01*
X181586000Y-94124000D02*
X181586000Y-95540000D01*
X181586000Y-97500000D02*
X181586000Y-98916000D01*
X181626000Y-94138000D02*
X181626000Y-95540000D01*
X181626000Y-97500000D02*
X181626000Y-98902000D01*
X181666000Y-94154000D02*
X181666000Y-95540000D01*
X181666000Y-97500000D02*
X181666000Y-98886000D01*
X181706000Y-94170000D02*
X181706000Y-95540000D01*
X181706000Y-97500000D02*
X181706000Y-98870000D01*
X181746000Y-94187000D02*
X181746000Y-95540000D01*
X181746000Y-97500000D02*
X181746000Y-98853000D01*
X181786000Y-94205000D02*
X181786000Y-95540000D01*
X181786000Y-97500000D02*
X181786000Y-98835000D01*
X181826000Y-94224000D02*
X181826000Y-95540000D01*
X181826000Y-97500000D02*
X181826000Y-98816000D01*
X181866000Y-94244000D02*
X181866000Y-95540000D01*
X181866000Y-97500000D02*
X181866000Y-98796000D01*
X181906000Y-94264000D02*
X181906000Y-95540000D01*
X181906000Y-97500000D02*
X181906000Y-98776000D01*
X181946000Y-94286000D02*
X181946000Y-95540000D01*
X181946000Y-97500000D02*
X181946000Y-98754000D01*
X181986000Y-94308000D02*
X181986000Y-95540000D01*
X181986000Y-97500000D02*
X181986000Y-98732000D01*
X182026000Y-94331000D02*
X182026000Y-95540000D01*
X182026000Y-97500000D02*
X182026000Y-98709000D01*
X182066000Y-94355000D02*
X182066000Y-95540000D01*
X182066000Y-97500000D02*
X182066000Y-98685000D01*
X182106000Y-94380000D02*
X182106000Y-95540000D01*
X182106000Y-97500000D02*
X182106000Y-98660000D01*
X182146000Y-94407000D02*
X182146000Y-95540000D01*
X182146000Y-97500000D02*
X182146000Y-98633000D01*
X182186000Y-94434000D02*
X182186000Y-95540000D01*
X182186000Y-97500000D02*
X182186000Y-98606000D01*
X182226000Y-94462000D02*
X182226000Y-95540000D01*
X182226000Y-97500000D02*
X182226000Y-98578000D01*
X182266000Y-94492000D02*
X182266000Y-95540000D01*
X182266000Y-97500000D02*
X182266000Y-98548000D01*
X182306000Y-94523000D02*
X182306000Y-95540000D01*
X182306000Y-97500000D02*
X182306000Y-98517000D01*
X182346000Y-94555000D02*
X182346000Y-95540000D01*
X182346000Y-97500000D02*
X182346000Y-98485000D01*
X182386000Y-94588000D02*
X182386000Y-95540000D01*
X182386000Y-97500000D02*
X182386000Y-98452000D01*
X182426000Y-94623000D02*
X182426000Y-95540000D01*
X182426000Y-97500000D02*
X182426000Y-98417000D01*
X182466000Y-94659000D02*
X182466000Y-95540000D01*
X182466000Y-97500000D02*
X182466000Y-98381000D01*
X182506000Y-94697000D02*
X182506000Y-95540000D01*
X182506000Y-97500000D02*
X182506000Y-98343000D01*
X182546000Y-94737000D02*
X182546000Y-95540000D01*
X182546000Y-97500000D02*
X182546000Y-98303000D01*
X182586000Y-94778000D02*
X182586000Y-95540000D01*
X182586000Y-97500000D02*
X182586000Y-98262000D01*
X182626000Y-94821000D02*
X182626000Y-95540000D01*
X182626000Y-97500000D02*
X182626000Y-98219000D01*
X182666000Y-94866000D02*
X182666000Y-95540000D01*
X182666000Y-97500000D02*
X182666000Y-98174000D01*
X182706000Y-94914000D02*
X182706000Y-98126000D01*
X182746000Y-94964000D02*
X182746000Y-98076000D01*
X182786000Y-95016000D02*
X182786000Y-98024000D01*
X182826000Y-95072000D02*
X182826000Y-97968000D01*
X182866000Y-95130000D02*
X182866000Y-97910000D01*
X182906000Y-95193000D02*
X182906000Y-97847000D01*
X182946000Y-95259000D02*
X182946000Y-97781000D01*
X182986000Y-95331000D02*
X182986000Y-97709000D01*
X183026000Y-95408000D02*
X183026000Y-97632000D01*
X183066000Y-95492000D02*
X183066000Y-97548000D01*
X183106000Y-95586000D02*
X183106000Y-97454000D01*
X183146000Y-95691000D02*
X183146000Y-97349000D01*
X183186000Y-95813000D02*
X183186000Y-97227000D01*
X183226000Y-95961000D02*
X183226000Y-97079000D01*
X183266000Y-96166000D02*
X183266000Y-96874000D01*
X177505000Y-96520000D02*
X178705000Y-96520000D01*
X178105000Y-95870000D02*
X178105000Y-97170000D01*
X148992335Y-92901392D02*
G75*
G03X145760000Y-92744484I-1672335J-1078608D01*
G01*
X148992335Y-95058608D02*
G75*
G02X145760000Y-95215516I-1672335J1078608D01*
G01*
X148361130Y-92900163D02*
G75*
G03X146279039Y-92900000I-1041130J-1079837D01*
G01*
X148361130Y-95059837D02*
G75*
G02X146279039Y-95060000I-1041130J1079837D01*
G01*
X145760000Y-92744000D02*
X145760000Y-92900000D01*
X145760000Y-95060000D02*
X145760000Y-95216000D01*
X156612335Y-96711392D02*
G75*
G03X153380000Y-96554484I-1672335J-1078608D01*
G01*
X156612335Y-98868608D02*
G75*
G02X153380000Y-99025516I-1672335J1078608D01*
G01*
X155981130Y-96710163D02*
G75*
G03X153899039Y-96710000I-1041130J-1079837D01*
G01*
X155981130Y-98869837D02*
G75*
G02X153899039Y-98870000I-1041130J1079837D01*
G01*
X153380000Y-96554000D02*
X153380000Y-96710000D01*
X153380000Y-98870000D02*
X153380000Y-99026000D01*
X161692335Y-103061392D02*
G75*
G03X158460000Y-102904484I-1672335J-1078608D01*
G01*
X161692335Y-105218608D02*
G75*
G02X158460000Y-105375516I-1672335J1078608D01*
G01*
X161061130Y-103060163D02*
G75*
G03X158979039Y-103060000I-1041130J-1079837D01*
G01*
X161061130Y-105219837D02*
G75*
G02X158979039Y-105220000I-1041130J1079837D01*
G01*
X158460000Y-102904000D02*
X158460000Y-103060000D01*
X158460000Y-105220000D02*
X158460000Y-105376000D01*
X161692335Y-110681392D02*
G75*
G03X158460000Y-110524484I-1672335J-1078608D01*
G01*
X161692335Y-112838608D02*
G75*
G02X158460000Y-112995516I-1672335J1078608D01*
G01*
X161061130Y-110680163D02*
G75*
G03X158979039Y-110680000I-1041130J-1079837D01*
G01*
X161061130Y-112839837D02*
G75*
G02X158979039Y-112840000I-1041130J1079837D01*
G01*
X158460000Y-110524000D02*
X158460000Y-110680000D01*
X158460000Y-112840000D02*
X158460000Y-112996000D01*
X156612335Y-117031392D02*
G75*
G03X153380000Y-116874484I-1672335J-1078608D01*
G01*
X156612335Y-119188608D02*
G75*
G02X153380000Y-119345516I-1672335J1078608D01*
G01*
X155981130Y-117030163D02*
G75*
G03X153899039Y-117030000I-1041130J-1079837D01*
G01*
X155981130Y-119189837D02*
G75*
G02X153899039Y-119190000I-1041130J1079837D01*
G01*
X153380000Y-116874000D02*
X153380000Y-117030000D01*
X153380000Y-119190000D02*
X153380000Y-119346000D01*
X148992335Y-119571392D02*
G75*
G03X145760000Y-119414484I-1672335J-1078608D01*
G01*
X148992335Y-121728608D02*
G75*
G02X145760000Y-121885516I-1672335J1078608D01*
G01*
X148361130Y-119570163D02*
G75*
G03X146279039Y-119570000I-1041130J-1079837D01*
G01*
X148361130Y-121729837D02*
G75*
G02X146279039Y-121730000I-1041130J1079837D01*
G01*
X145760000Y-119414000D02*
X145760000Y-119570000D01*
X145760000Y-121730000D02*
X145760000Y-121886000D01*
X141372335Y-117031392D02*
G75*
G03X138140000Y-116874484I-1672335J-1078608D01*
G01*
X141372335Y-119188608D02*
G75*
G02X138140000Y-119345516I-1672335J1078608D01*
G01*
X140741130Y-117030163D02*
G75*
G03X138659039Y-117030000I-1041130J-1079837D01*
G01*
X140741130Y-119189837D02*
G75*
G02X138659039Y-119190000I-1041130J1079837D01*
G01*
X138140000Y-116874000D02*
X138140000Y-117030000D01*
X138140000Y-119190000D02*
X138140000Y-119346000D01*
X136292335Y-110681392D02*
G75*
G03X133060000Y-110524484I-1672335J-1078608D01*
G01*
X136292335Y-112838608D02*
G75*
G02X133060000Y-112995516I-1672335J1078608D01*
G01*
X135661130Y-110680163D02*
G75*
G03X133579039Y-110680000I-1041130J-1079837D01*
G01*
X135661130Y-112839837D02*
G75*
G02X133579039Y-112840000I-1041130J1079837D01*
G01*
X133060000Y-110524000D02*
X133060000Y-110680000D01*
X133060000Y-112840000D02*
X133060000Y-112996000D01*
X136292335Y-103061392D02*
G75*
G03X133060000Y-102904484I-1672335J-1078608D01*
G01*
X136292335Y-105218608D02*
G75*
G02X133060000Y-105375516I-1672335J1078608D01*
G01*
X135661130Y-103060163D02*
G75*
G03X133579039Y-103060000I-1041130J-1079837D01*
G01*
X135661130Y-105219837D02*
G75*
G02X133579039Y-105220000I-1041130J1079837D01*
G01*
X133060000Y-102904000D02*
X133060000Y-103060000D01*
X133060000Y-105220000D02*
X133060000Y-105376000D01*
X141372335Y-96711392D02*
G75*
G03X138140000Y-96554484I-1672335J-1078608D01*
G01*
X141372335Y-98868608D02*
G75*
G02X138140000Y-99025516I-1672335J1078608D01*
G01*
X140741130Y-96710163D02*
G75*
G03X138659039Y-96710000I-1041130J-1079837D01*
G01*
X140741130Y-98869837D02*
G75*
G02X138659039Y-98870000I-1041130J1079837D01*
G01*
X138140000Y-96554000D02*
X138140000Y-96710000D01*
X138140000Y-98870000D02*
X138140000Y-99026000D01*
X180305000Y-103160000D02*
X180305000Y-102830000D01*
X180305000Y-102830000D02*
X186725000Y-102830000D01*
X186725000Y-102830000D02*
X186725000Y-103160000D01*
X180305000Y-105120000D02*
X180305000Y-105450000D01*
X180305000Y-105450000D02*
X186725000Y-105450000D01*
X186725000Y-105450000D02*
X186725000Y-105120000D01*
X180305000Y-108240000D02*
X180305000Y-107910000D01*
X180305000Y-107910000D02*
X186725000Y-107910000D01*
X186725000Y-107910000D02*
X186725000Y-108240000D01*
X180305000Y-110200000D02*
X180305000Y-110530000D01*
X180305000Y-110530000D02*
X186725000Y-110530000D01*
X186725000Y-110530000D02*
X186725000Y-110200000D01*
X171815000Y-102810000D02*
G75*
G02X169815000Y-102810000I-1000000J0D01*
G01*
X169815000Y-102810000D02*
X168165000Y-102810000D01*
X168165000Y-102810000D02*
X168165000Y-123250000D01*
X168165000Y-123250000D02*
X173465000Y-123250000D01*
X173465000Y-123250000D02*
X173465000Y-102810000D01*
X173465000Y-102810000D02*
X171815000Y-102810000D01*
X184515000Y-112970000D02*
G75*
G02X182515000Y-112970000I-1000000J0D01*
G01*
X182515000Y-112970000D02*
X180865000Y-112970000D01*
X180865000Y-112970000D02*
X180865000Y-123250000D01*
X180865000Y-123250000D02*
X186165000Y-123250000D01*
X186165000Y-123250000D02*
X186165000Y-112970000D01*
X186165000Y-112970000D02*
X184515000Y-112970000D01*
X179324000Y-84899500D02*
X189484000Y-84899500D01*
X179324000Y-83629500D02*
X179324000Y-91249500D01*
X179324000Y-91249500D02*
X189484000Y-91249500D01*
X189484000Y-91249500D02*
X189484000Y-83629500D01*
X189484000Y-83629500D02*
X179324000Y-83629500D01*
M02*
