G04 #@! TF.FileFunction,Soldermask,Top*
%FSLAX46Y46*%
G04 Gerber Fmt 4.6, Leading zero omitted, Abs format (unit mm)*
G04 Created by KiCad (PCBNEW 4.0.7-e2-6376~58~ubuntu16.04.1) date Wed Jun 13 19:58:53 2018*
%MOMM*%
%LPD*%
G01*
G04 APERTURE LIST*
%ADD10C,0.100000*%
%ADD11C,1.800000*%
%ADD12O,1.800000X1.800000*%
%ADD13R,2.000000X2.000000*%
%ADD14C,2.000000*%
%ADD15R,2.200000X2.200000*%
%ADD16C,2.200000*%
%ADD17O,2.000000X2.000000*%
%ADD18R,3.400000X3.400000*%
%ADD19C,3.400000*%
G04 APERTURE END LIST*
D10*
D11*
X186690000Y-93980000D03*
D12*
X186690000Y-99060000D03*
D13*
X179705000Y-96520000D03*
D14*
X181705000Y-96520000D03*
D15*
X146050000Y-93980000D03*
D16*
X148590000Y-93980000D03*
D15*
X153670000Y-97790000D03*
D16*
X156210000Y-97790000D03*
D15*
X158750000Y-104140000D03*
D16*
X161290000Y-104140000D03*
D15*
X158750000Y-111760000D03*
D16*
X161290000Y-111760000D03*
D15*
X153670000Y-118110000D03*
D16*
X156210000Y-118110000D03*
D15*
X146050000Y-120650000D03*
D16*
X148590000Y-120650000D03*
D15*
X138430000Y-118110000D03*
D16*
X140970000Y-118110000D03*
D15*
X133350000Y-111760000D03*
D16*
X135890000Y-111760000D03*
D15*
X133350000Y-104140000D03*
D16*
X135890000Y-104140000D03*
D15*
X138430000Y-97790000D03*
D16*
X140970000Y-97790000D03*
D14*
X179705000Y-104140000D03*
D17*
X187325000Y-104140000D03*
D14*
X179705000Y-109220000D03*
D17*
X187325000Y-109220000D03*
D13*
X167005000Y-104140000D03*
D17*
X174625000Y-121920000D03*
X167005000Y-106680000D03*
X174625000Y-119380000D03*
X167005000Y-109220000D03*
X174625000Y-116840000D03*
X167005000Y-111760000D03*
X174625000Y-114300000D03*
X167005000Y-114300000D03*
X174625000Y-111760000D03*
X167005000Y-116840000D03*
X174625000Y-109220000D03*
X167005000Y-119380000D03*
X174625000Y-106680000D03*
X167005000Y-121920000D03*
X174625000Y-104140000D03*
D13*
X179705000Y-114300000D03*
D17*
X187325000Y-121920000D03*
X179705000Y-116840000D03*
X187325000Y-119380000D03*
X179705000Y-119380000D03*
X187325000Y-116840000D03*
X179705000Y-121920000D03*
X187325000Y-114300000D03*
D18*
X186944000Y-87439500D03*
D19*
X181864000Y-87439500D03*
M02*
