M48
;DRILL file {KiCad 4.0.7-e2-6376~58~ubuntu16.04.1} date Wed May 16 21:57:07 2018
;FORMAT={-:-/ absolute / inch / decimal}
FMAT,2
INCH,TZ
T1C0.016
T2C0.028
T3C0.031
T4C0.035
T5C0.060
%
G90
G05
M72
T1
X5.8Y-4.25
X5.965Y-4.37
X6.025Y-4.43
X6.13Y-4.53
X6.16Y-4.47
X6.165Y-3.79
X6.175Y-4.375
X6.37Y-4.68
X6.405Y-4.22
X6.445Y-4.07
X6.445Y-4.47
X6.5Y-4.315
X6.975Y-4.1
X6.975Y-4.4
T2
X7.35Y-3.7
X7.35Y-3.9
T3
X6.575Y-4.1
X6.575Y-4.2
X6.575Y-4.3
X6.575Y-4.4
X6.575Y-4.5
X6.575Y-4.6
X6.575Y-4.7
X6.575Y-4.8
X6.875Y-4.1
X6.875Y-4.2
X6.875Y-4.3
X6.875Y-4.4
X6.875Y-4.5
X6.875Y-4.6
X6.875Y-4.7
X6.875Y-4.8
X7.075Y-3.8
X7.075Y-4.1
X7.075Y-4.3
X7.075Y-4.5
X7.075Y-4.6
X7.075Y-4.7
X7.075Y-4.8
X7.1537Y-3.8
X7.375Y-4.1
X7.375Y-4.3
X7.375Y-4.5
X7.375Y-4.6
X7.375Y-4.7
X7.375Y-4.8
T4
X5.25Y-4.1
X5.25Y-4.4
X5.35Y-4.1
X5.35Y-4.4
X5.45Y-3.85
X5.45Y-4.65
X5.55Y-3.85
X5.55Y-4.65
X5.75Y-3.7
X5.75Y-4.75
X5.85Y-3.7
X5.85Y-4.75
X6.05Y-3.85
X6.05Y-4.65
X6.15Y-3.85
X6.15Y-4.65
X6.25Y-4.1
X6.25Y-4.4
X6.35Y-4.1
X6.35Y-4.4
T5
X7.16Y-3.4425
X7.36Y-3.4425
T0
M30
