M48
;DRILL file {KiCad 4.0.7-e2-6376~58~ubuntu16.04.1} date Wed Apr 11 12:48:28 2018
;FORMAT={-:-/ absolute / inch / decimal}
FMAT,2
INCH,TZ
T1C0.016
T2C0.024
T3C0.028
T4C0.031
T5C0.033
T6C0.035
%
G90
G05
M72
T1
X5.8Y-4.25
X6.375Y-4.65
X6.425Y-3.975
X6.45Y-4.5
X6.475Y-3.9
X6.475Y-4.325
X6.5Y-3.825
X6.675Y-4.2
X6.8Y-4.125
X6.8Y-4.55
X6.975Y-4.1
X6.975Y-4.4
T3
X7.35Y-3.7
X7.35Y-3.9
T4
X6.575Y-4.1
X6.575Y-4.2
X6.575Y-4.3
X6.575Y-4.4
X6.575Y-4.5
X6.575Y-4.6
X6.575Y-4.7
X6.575Y-4.8
X6.875Y-4.1
X6.875Y-4.2
X6.875Y-4.3
X6.875Y-4.4
X6.875Y-4.5
X6.875Y-4.6
X6.875Y-4.7
X6.875Y-4.8
X7.075Y-3.8
X7.075Y-4.1
X7.075Y-4.3
X7.075Y-4.5
X7.075Y-4.6
X7.075Y-4.7
X7.075Y-4.8
X7.1537Y-3.8
X7.375Y-4.1
X7.375Y-4.3
X7.375Y-4.5
X7.375Y-4.6
X7.375Y-4.7
X7.375Y-4.8
T5
X7.1516Y-3.4175
X7.3484Y-3.4175
T6
X5.25Y-4.1
X5.25Y-4.4
X5.35Y-4.1
X5.35Y-4.4
X5.45Y-3.85
X5.45Y-4.65
X5.55Y-3.85
X5.55Y-4.65
X5.75Y-3.7
X5.75Y-4.75
X5.85Y-3.7
X5.85Y-4.75
X6.05Y-3.85
X6.05Y-4.65
X6.15Y-3.85
X6.15Y-4.65
X6.25Y-4.1
X6.25Y-4.4
X6.35Y-4.1
X6.35Y-4.4
T2
X7.1122Y-3.325G85X7.1122Y-3.2974
G05
X7.3878Y-3.2974G85X7.3878Y-3.325
G05
T0
M30
