G04 #@! TF.FileFunction,Copper,L1,Top,Signal*
%FSLAX46Y46*%
G04 Gerber Fmt 4.6, Leading zero omitted, Abs format (unit mm)*
G04 Created by KiCad (PCBNEW 4.0.7-e2-6376~58~ubuntu16.04.1) date Wed May 16 21:57:11 2018*
%MOMM*%
%LPD*%
G01*
G04 APERTURE LIST*
%ADD10C,0.100000*%
%ADD11R,1.600000X1.600000*%
%ADD12C,1.600000*%
%ADD13R,1.800000X1.800000*%
%ADD14C,1.800000*%
%ADD15O,1.600000X1.600000*%
%ADD16C,1.400000*%
%ADD17O,1.400000X1.400000*%
%ADD18R,3.000000X3.000000*%
%ADD19C,3.000000*%
%ADD20C,0.600000*%
%ADD21C,0.250000*%
G04 APERTURE END LIST*
D10*
D11*
X179705000Y-96520000D03*
D12*
X181705000Y-96520000D03*
D13*
X146050000Y-93980000D03*
D14*
X148590000Y-93980000D03*
D13*
X153670000Y-97790000D03*
D14*
X156210000Y-97790000D03*
D13*
X158750000Y-104140000D03*
D14*
X161290000Y-104140000D03*
D13*
X158750000Y-111760000D03*
D14*
X161290000Y-111760000D03*
D13*
X153670000Y-118110000D03*
D14*
X156210000Y-118110000D03*
D13*
X146050000Y-120650000D03*
D14*
X148590000Y-120650000D03*
D13*
X138430000Y-118110000D03*
D14*
X140970000Y-118110000D03*
D13*
X133350000Y-111760000D03*
D14*
X135890000Y-111760000D03*
D13*
X133350000Y-104140000D03*
D14*
X135890000Y-104140000D03*
D13*
X138430000Y-97790000D03*
D14*
X140970000Y-97790000D03*
D12*
X179705000Y-104140000D03*
D15*
X187325000Y-104140000D03*
D12*
X179705000Y-109220000D03*
D15*
X187325000Y-109220000D03*
D16*
X186690000Y-93980000D03*
D17*
X186690000Y-99060000D03*
D11*
X167005000Y-104140000D03*
D15*
X174625000Y-121920000D03*
X167005000Y-106680000D03*
X174625000Y-119380000D03*
X167005000Y-109220000D03*
X174625000Y-116840000D03*
X167005000Y-111760000D03*
X174625000Y-114300000D03*
X167005000Y-114300000D03*
X174625000Y-111760000D03*
X167005000Y-116840000D03*
X174625000Y-109220000D03*
X167005000Y-119380000D03*
X174625000Y-106680000D03*
X167005000Y-121920000D03*
X174625000Y-104140000D03*
D11*
X179705000Y-114300000D03*
D15*
X187325000Y-121920000D03*
X179705000Y-116840000D03*
X187325000Y-119380000D03*
X179705000Y-119380000D03*
X187325000Y-116840000D03*
X179705000Y-121920000D03*
X187325000Y-114300000D03*
D18*
X186944000Y-87439500D03*
D19*
X181864000Y-87439500D03*
D20*
X147320000Y-107950000D03*
X156591000Y-96266000D03*
X163703000Y-103378000D03*
X156845000Y-111125000D03*
X155702000Y-115062000D03*
X163703000Y-113538000D03*
X151511000Y-110998000D03*
X153035000Y-112522000D03*
X156464000Y-113538000D03*
X161798000Y-118872000D03*
X165100000Y-109601000D03*
X162687000Y-107188000D03*
X177165000Y-111760000D03*
X177165000Y-104140000D03*
D21*
X187325000Y-104140000D02*
X186055000Y-105410000D01*
X186055000Y-105410000D02*
X186055000Y-118110000D01*
X186055000Y-118110000D02*
X187325000Y-119380000D01*
X147320000Y-107950000D02*
X147320000Y-114935000D01*
X147320000Y-119380000D02*
X147320000Y-114935000D01*
X147320000Y-119380000D02*
X146050000Y-120650000D01*
X153035000Y-102235000D02*
X149542500Y-105727500D01*
X154940000Y-99060000D02*
X154940000Y-100330000D01*
X154940000Y-100330000D02*
X153035000Y-102235000D01*
X153670000Y-97790000D02*
X154940000Y-99060000D01*
X149542500Y-105727500D02*
X149225000Y-105410000D01*
X147320000Y-104775000D02*
X147320000Y-99060000D01*
X147320000Y-95250000D02*
X147320000Y-99060000D01*
X147320000Y-95250000D02*
X146050000Y-93980000D01*
X140970000Y-101600000D02*
X145097500Y-105727500D01*
X139700000Y-99060000D02*
X139700000Y-100330000D01*
X139700000Y-100330000D02*
X140970000Y-101600000D01*
X138430000Y-97790000D02*
X139700000Y-99060000D01*
X145097500Y-105727500D02*
X145415000Y-105410000D01*
X144145000Y-106680000D02*
X144145000Y-109220000D01*
X142240000Y-113030000D02*
X145097500Y-110172500D01*
X139700000Y-116840000D02*
X139700000Y-115570000D01*
X139700000Y-115570000D02*
X142240000Y-113030000D01*
X138430000Y-118110000D02*
X139700000Y-116840000D01*
X145097500Y-110172500D02*
X145415000Y-110490000D01*
X152400000Y-113030000D02*
X149542500Y-110172500D01*
X154940000Y-116840000D02*
X154940000Y-115570000D01*
X154940000Y-115570000D02*
X152400000Y-113030000D01*
X153670000Y-118110000D02*
X154940000Y-116840000D01*
X149542500Y-110172500D02*
X149860000Y-109855000D01*
X150495000Y-106680000D02*
X153670000Y-106680000D01*
X160020000Y-105410000D02*
X160020000Y-106680000D01*
X160020000Y-106680000D02*
X153670000Y-106680000D01*
X160020000Y-105410000D02*
X158750000Y-104140000D01*
X150495000Y-109220000D02*
X153670000Y-109220000D01*
X160020000Y-110490000D02*
X160020000Y-109220000D01*
X160020000Y-109220000D02*
X153670000Y-109220000D01*
X160020000Y-110490000D02*
X158750000Y-111760000D01*
X144145000Y-106680000D02*
X145415000Y-105410000D01*
X145415000Y-105410000D02*
X146050000Y-104775000D01*
X146050000Y-111125000D02*
X145415000Y-110490000D01*
X145415000Y-110490000D02*
X144145000Y-109220000D01*
X148590000Y-111125000D02*
X146050000Y-111125000D01*
X150495000Y-109220000D02*
X149860000Y-109855000D01*
X149860000Y-109855000D02*
X148590000Y-111125000D01*
X150495000Y-106680000D02*
X150495000Y-109220000D01*
X148590000Y-104775000D02*
X149225000Y-105410000D01*
X149225000Y-105410000D02*
X150495000Y-106680000D01*
X146050000Y-104775000D02*
X147320000Y-104775000D01*
X147320000Y-104775000D02*
X148590000Y-104775000D01*
X140970000Y-106680000D02*
X144145000Y-106680000D01*
X133350000Y-104140000D02*
X134620000Y-105410000D01*
X134620000Y-106680000D02*
X140970000Y-106680000D01*
X134620000Y-105410000D02*
X134620000Y-106680000D01*
X134620000Y-110490000D02*
X134620000Y-109220000D01*
X134620000Y-109220000D02*
X140970000Y-109220000D01*
X134620000Y-110490000D02*
X133350000Y-111760000D01*
X144145000Y-109220000D02*
X140970000Y-109220000D01*
X167005000Y-109220000D02*
X165989000Y-108204000D01*
X165989000Y-108204000D02*
X165989000Y-107950000D01*
X165989000Y-107950000D02*
X162560000Y-104521000D01*
X162560000Y-104521000D02*
X162560000Y-103632000D01*
X162560000Y-103632000D02*
X162433000Y-103505000D01*
X162433000Y-103505000D02*
X162433000Y-103378000D01*
X162433000Y-103378000D02*
X157480000Y-98425000D01*
X157480000Y-98425000D02*
X157480000Y-97282000D01*
X157480000Y-97282000D02*
X157353000Y-97155000D01*
X157353000Y-97155000D02*
X157353000Y-97028000D01*
X157353000Y-97028000D02*
X156591000Y-96266000D01*
X167005000Y-106680000D02*
X163703000Y-103378000D01*
X161290000Y-104140000D02*
X165862000Y-108712000D01*
X165862000Y-108712000D02*
X165862000Y-110363000D01*
X165862000Y-110363000D02*
X167005000Y-111506000D01*
X167005000Y-111506000D02*
X167005000Y-111760000D01*
X161290000Y-108585000D02*
X161290000Y-104140000D01*
X167005000Y-119380000D02*
X161290000Y-113665000D01*
X161290000Y-113665000D02*
X161290000Y-111760000D01*
X167005000Y-119126000D02*
X167005000Y-119380000D01*
X156210000Y-118110000D02*
X156845000Y-117475000D01*
X156845000Y-111125000D02*
X155702000Y-112268000D01*
X155702000Y-112268000D02*
X155702000Y-115062000D01*
X167005000Y-114300000D02*
X161290000Y-108585000D01*
X167005000Y-116840000D02*
X163703000Y-113538000D01*
X151511000Y-110998000D02*
X153035000Y-112522000D01*
X156464000Y-113538000D02*
X161798000Y-118872000D01*
X173926500Y-121920000D02*
X174625000Y-121920000D01*
X165100000Y-109601000D02*
X162687000Y-107188000D01*
X187325000Y-109220000D02*
X188595000Y-110490000D01*
X188595000Y-110490000D02*
X188595000Y-115570000D01*
X188595000Y-115570000D02*
X187325000Y-116840000D01*
X177165000Y-111760000D02*
X178435000Y-113030000D01*
X178435000Y-113030000D02*
X178435000Y-118110000D01*
X178435000Y-118110000D02*
X179705000Y-119380000D01*
X174625000Y-111760000D02*
X170942000Y-115443000D01*
X170942000Y-115443000D02*
X170942000Y-117983000D01*
X170942000Y-117983000D02*
X167005000Y-121920000D01*
X174625000Y-106680000D02*
X175895000Y-107950000D01*
X175895000Y-107950000D02*
X175895000Y-110490000D01*
X175895000Y-110490000D02*
X174625000Y-111760000D01*
X181705000Y-96520000D02*
X181610000Y-96520000D01*
X181610000Y-96520000D02*
X180975000Y-97155000D01*
X180975000Y-97155000D02*
X180975000Y-97790000D01*
X180975000Y-97790000D02*
X177165000Y-101600000D01*
X177165000Y-101600000D02*
X177165000Y-104140000D01*
X181610000Y-96520000D02*
X181705000Y-96520000D01*
X179705000Y-109220000D02*
X179705000Y-106743500D01*
X181864000Y-91122500D02*
X181864000Y-87439500D01*
X183324500Y-92583000D02*
X181864000Y-91122500D01*
X183324500Y-103124000D02*
X183324500Y-92583000D01*
X179705000Y-106743500D02*
X183324500Y-103124000D01*
X179705000Y-109220000D02*
X174625000Y-104140000D01*
X179705000Y-109220000D02*
X180975000Y-110490000D01*
X180975000Y-110490000D02*
X180975000Y-120650000D01*
X180975000Y-120650000D02*
X179705000Y-121920000D01*
M02*
